<svg id="Layer_1" data-name="Layer 1" xmlns="http://www.w3.org/2000/svg" width="128" height="128" viewBox="0 0 128 128">
  <title>Trace</title>
  <g>
    <path d="M126.47,58.12l-26.3-45.74A11.56,11.56,0,0,0,90.31,6.5H37.7a11.55,11.55,0,0,0-9.86,5.88L1.53,58a11.48,11.48,0,0,0,0,11.44l26.3,46a11.77,11.77,0,0,0,9.86,6.09H90.3a11.73,11.73,0,0,0,9.87-6.06l26.3-45.74A11.73,11.73,0,0,0,126.47,58.12Z" style="fill: #4285f4"/>
    <path d="M100.17,115.44l18.72-32.55L94,58,83.16,64.16,53,34,34,46,52.69,64.69,34,70,56.39,92.39,53,94l27.5,27.5h9.8A11.73,11.73,0,0,0,100.17,115.44Z" style="opacity: 0.070000000298023;isolation: isolate"/>
    <rect x="34" y="58" width="60" height="12" style="fill: #fff"/>
    <rect x="53" y="82" width="41" height="12" style="fill: #fff"/>
    <rect x="34" y="34" width="19" height="12" style="fill: #fff"/>
  </g>
</svg>
