<svg id="Layer_1" data-name="Layer 1" xmlns="http://www.w3.org/2000/svg" width="128" height="128" viewBox="0 0 128 128">
  <title>Cloud Translation API</title>
  <g>
    <path d="M126.47,58.12l-26.3-45.74A11.56,11.56,0,0,0,90.31,6.5H37.7a11.55,11.55,0,0,0-9.86,5.88L1.53,58a11.48,11.48,0,0,0,0,11.44l26.3,46a11.77,11.77,0,0,0,9.86,6.09H90.3a11.73,11.73,0,0,0,9.87-6.06l26.3-45.74A11.73,11.73,0,0,0,126.47,58.12Z" style="fill: #4285f4"/>
    <path d="M92.52,49.43l-4.6,2.15-7.09,18-4-4-6.94-.72L57.28,52.22,50,53.15,42.88,46l-3.47,6.81-14.63,3L37.91,69,26.63,80.1,68,121.5H90.3a11.73,11.73,0,0,0,9.87-6.06l21.3-37.05Z" style="opacity: 0.070000000298023;isolation: isolate"/>
    <g id="art">
      <g>
        <path d="M87.75,49.43h4.77l11.32,31.19H99.21L96,71.28H83.71l-3.38,9.35H76Zm7,18.41L90,54.06,85,67.84Z" style="fill: #fff"/>
        <path d="M50.56,58H46c-.45,1-.93,2-1.44,2.87a28,28,0,0,1-3.37,4.8,36.8,36.8,0,0,1-3.56-4.94A25,25,0,0,1,36.22,58H31.81c.61,1,1.3,2.84,2.06,4.18a47.91,47.91,0,0,0,4.39,6.38,40,40,0,0,1-5.9,4.26,38.15,38.15,0,0,1-8,3.52l2.26,3.76a50.53,50.53,0,0,0,7.94-3.82,46.78,46.78,0,0,0,6.59-4.74A28.16,28.16,0,0,0,44.24,74q1.7,1.17,3.58,2.23t3.84,2q2,.9,3.9,1.58l2.22-4q-1.62-.52-3.41-1.21t-3.56-1.59a39.06,39.06,0,0,1-3.5-2,23.91,23.91,0,0,1-3.19-2.4,33.83,33.83,0,0,0,4.43-6.28C49.3,60.91,50,59,50.56,58Z" style="fill: #fff"/>
        <polygon points="76.78 65.5 69.66 61.38 69.66 64.59 55.73 64.59 55.73 66.66 69.66 66.66 69.66 69.61 76.78 65.5" style="fill: #fff"/>
        <polygon points="42.88 52.22 42.88 46.03 38.71 46.03 38.71 52.22 24.79 52.22 24.79 55.83 57.28 55.83 57.28 52.22 42.88 52.22" style="fill: #fff"/>
      </g>
    </g>
  </g>
</svg>
