<svg id="Layer_1" data-name="Layer 1" xmlns="http://www.w3.org/2000/svg" width="128" height="128" viewBox="0 0 128 128">
  <title>Cloud CDN</title>
  <g>
    <path d="M126.47,58.12l-26.3-45.74A11.56,11.56,0,0,0,90.31,6.5H37.7a11.55,11.55,0,0,0-9.86,5.88L1.53,58a11.48,11.48,0,0,0,0,11.44l26.3,46a11.77,11.77,0,0,0,9.86,6.09H90.3a11.73,11.73,0,0,0,9.87-6.06l26.3-45.74A11.73,11.73,0,0,0,126.47,58.12Z" style="fill: #4285f4"/>
    <path d="M74.85,40.9l-11.6-4.15L53,49.29l7,7L56.18,60l-7-7L36.5,63.25,40.9,74.9l46.6,46.6h2.8a11.73,11.73,0,0,0,9.87-6.06l18-31.26Z" style="opacity: 0.070000000298023;isolation: isolate"/>
    <polygon points="64 30 53 41 53 49.31 64 38.31 75 49.31 75 41 64 30" style="fill: #fff"/>
    <polygon points="64 98 53 87 53 78.69 64 89.69 75 78.69 75 87 64 98" style="fill: #fff"/>
    <polygon points="30 64 41 75 49.31 75 38.31 64 49.31 53 41 53 30 64" style="fill: #fff"/>
    <polygon points="98 64 87 75 78.69 75 89.69 64 78.69 53 87 53 98 64" style="fill: #fff"/>
    <rect x="53" y="53" width="22" height="22" rx="1" ry="1" style="fill: #fff"/>
  </g>
</svg>
