<svg xmlns="http://www.w3.org/2000/svg" width="128" height="128" viewBox="0 0 128 128"><title>Network Service Tiers_Standard</title><path d="M126.4738,58.12,100.1694,12.3782A11.5551,11.5551,0,0,0,90.3056,6.5H37.6969a11.5486,11.5486,0,0,0-9.865,5.8757L1.5275,58.0261a11.4753,11.4753,0,0,0-.0023,11.4366L27.83,115.4133A11.7726,11.7726,0,0,0,37.6938,121.5H90.3021a11.7264,11.7264,0,0,0,9.8661-6.06l26.3031-45.7447A11.728,11.728,0,0,0,126.4738,58.12Z" fill="#4285f4"/><path d="M55.2716,38.6413l-4.4275,4.4114L68.8052,61.0139l-9.9894,8.423L37.1616,47.7827,27.44,71.4319,77.5085,121.5H90.3021a11.7263,11.7263,0,0,0,9.8661-6.06l11.6466-20.255Z" opacity="0.07" style="isolation:isolate"/><polygon points="121.313 78.666 88.905 46.259 86.129 46.808 78.721 39.4 74.308 43.825 67.034 36.561 62.631 40.999 113.641 92.009 121.313 78.666" opacity="0.07" style="isolation:isolate"/><path d="M37.1616,47.7827A43.85,43.85,0,0,0,26.6168,68.6954a3,3,0,1,0,5.875,1.2148,38.2009,38.2009,0,0,1,8.2691-17.1429Z" fill="#fff"/><path d="M63.7427,58.5459a7.4261,7.4261,0,0,0-.97.0707L44.1341,43.9714c-2.2025-1.7306-3.8209-.1506-2.1332,2.0828l14.39,19.0422.0046.0053a7.3967,7.3967,0,1,0,7.347-6.5557Z" fill="#fff"/><circle cx="53.0699" cy="40.8592" r="3.125" fill="#fff"/><circle cx="64.8513" cy="38.7989" r="3.125" fill="#fff"/><circle cx="76.5226" cy="41.6207" r="3.125" fill="#fff"/><circle cx="86.7078" cy="48.4813" r="3.125" fill="#fff"/><circle cx="94.0443" cy="58.1783" r="3.125" fill="#fff"/><circle cx="98.1445" cy="69.5262" r="3.125" fill="#fff"/></svg>