<svg id="Layer_1" data-name="Layer 1" xmlns="http://www.w3.org/2000/svg" width="128" height="128" viewBox="0 0 128 128">
  <title>Cloud Datalab</title>
  <g>
    <path d="M126.47,58.12l-26.3-45.74A11.56,11.56,0,0,0,90.31,6.5H37.7a11.55,11.55,0,0,0-9.86,5.88L1.53,58a11.48,11.48,0,0,0,0,11.44l26.3,46a11.77,11.77,0,0,0,9.86,6.09H90.3a11.73,11.73,0,0,0,9.87-6.06l26.3-45.74A11.73,11.73,0,0,0,126.47,58.12Z" style="fill: #4285f4"/>
    <path d="M64.59,25.74l-3.45,3.5,8.65,8.65-4,.95,8.6,9.48-3.06.7L61,38.68l-3.53,3.4,7.37,7.37-6.65-.08L53.8,51.94l4.36,4.36L43.83,81.19,48,92.27,77.2,121.5H90.3a11.73,11.73,0,0,0,9.87-6.06l19.76-34.37Z" style="opacity: 0.070000000298023;isolation: isolate"/>
    <g id="art">
      <circle cx="59.14" cy="40.26" r="2.45" style="fill: #fff"/>
      <circle cx="68.39" cy="36.22" r="3.68" style="fill: #fff"/>
      <circle cx="62.82" cy="27.43" r="2.45" style="fill: #fff"/>
      <path d="M73.14,82l-1.73-3H83.27L71.47,58.56h-.41L81.21,76H54.81l-3.16,5.48a1.23,1.23,0,0,0,0,1.23l3.85,6.67H80.85l4.2-7.28L85,82Z" style="fill: #fff"/>
      <path d="M85.52,80.73,72.14,57.54a1.23,1.23,0,0,1-.17-.61V52h2a.5.5,0,0,0,.5-.5V48.68a.5.5,0,0,0-.5-.5H54.08a.5.5,0,0,0-.5.5V51.5a.5.5,0,0,0,.5.5h2v4.93a1.22,1.22,0,0,1-.17.61L42.47,80.73a2.46,2.46,0,0,0,0,2.45l4.89,8.47a2.46,2.46,0,0,0,2.12,1.22h29a2.45,2.45,0,0,0,2.12-1.22l4.89-8.47A2.44,2.44,0,0,0,85.52,80.73Zm-4.18,1.74L78,88.24a1.22,1.22,0,0,1-1.06.61H51A1.22,1.22,0,0,1,50,88.24l-3.34-5.77a1.23,1.23,0,0,1,0-1.23l13-22.47A2.45,2.45,0,0,0,60,57.55V52H68v5.55a2.48,2.48,0,0,0,.33,1.23l13,22.47A1.23,1.23,0,0,1,81.35,82.47Z" style="fill: #fff"/>
      <polygon points="63.55 65.95 75.52 65.95 73.72 63.11 61.91 63.11 63.55 65.95" style="fill: #fff"/>
      <polygon points="66 70 67.72 72.97 79.93 72.97 78.16 70 66 70" style="fill: #fff"/>
    </g>
  </g>
</svg>
