<svg xmlns="http://www.w3.org/2000/svg" width="128" height="128" viewBox="0 0 128 128"><title>Apigee Sense</title><path d="M126.4738,58.12,100.1694,12.3782A11.5551,11.5551,0,0,0,90.3056,6.5H37.6969a11.5486,11.5486,0,0,0-9.865,5.8757L1.5275,58.0261a11.4753,11.4753,0,0,0-.0023,11.4366L27.83,115.4133A11.7726,11.7726,0,0,0,37.6938,121.5H90.3021a11.7264,11.7264,0,0,0,9.8661-6.06l26.3031-45.7447A11.728,11.728,0,0,0,126.4738,58.12Z" fill="#4285f4"/><path d="M72.8519,32.8007l-26.6832,13.7L32.8109,72.859,81.4544,121.5h8.8477a11.7264,11.7264,0,0,0,9.8661-6.06l20.1945-35.1209Z" opacity="0.07"/><path d="M94.0591,54.4935l-1.1236-.29-3.545-.916c-.0871-.2061-.191-.403-.2829-.6066-.14-.31-.2791-.6187-.43-.922-.1469-.2954-.3039-.5841-.4609-.8734-.1609-.2965-.3215-.5927-.4929-.8825-.1676-.2834-.345-.56-.5223-.8363-.1806-.2819-.3607-.5635-.5512-.8382-.1881-.2713-.3855-.5349-.583-.7989-.1991-.2662-.3976-.5322-.606-.7909s-.4232-.5062-.6394-.7558-.4328-.5-.6583-.7424-.46-.4759-.6937-.71-.466-.4664-.7076-.6912-.4937-.443-.7447-.66c-.2488-.2154-.497-.4308-.7534-.6374-.26-.2093-.5272-.4088-.7948-.6088-.2626-.1963-.5245-.3926-.7943-.58-.276-.1914-.5589-.3724-.8421-.5538-.2759-.1767-.5511-.3536-.8336-.5206-.29-.1716-.5868-.3323-.8837-.4935-.289-.1569-.5775-.3139-.8726-.4606-.3033-.1508-.6125-.29-.9221-.43-.2036-.0919-.4-.1958-.6066-.2829l-.9159-3.545-.29-1.1236a2.4785,2.4785,0,0,0-2.4-1.8585H56.895a2.4786,2.4786,0,0,0-2.4,1.8585l-.29,1.1236-.916,3.545c-.2063.0871-.4033.191-.6069.283-.3095.14-.6185.2791-.9218.43-.2954.1468-.5839.3039-.8732.4609-.2967.161-.593.3216-.8829.493-.2831.1675-.5592.3446-.8357.5219-.2822.1808-.564.3611-.839.5518-.271.1879-.5344.3851-.7983.5824-.2664.1991-.5325.3978-.7913.6063-.2571.2071-.5061.4231-.7555.6392s-.5007.4334-.7432.6591-.475.4587-.7087.6924-.4671.4667-.6922.7085-.4428.4935-.66.7443c-.2156.2489-.431.4972-.6376.7538-.2091.26-.4084.5266-.6082.7938-.1967.2631-.3934.5256-.5807.7959-.1908.2751-.3711.5571-.5521.8395-.1773.2768-.3547.553-.5223.8364-.1711.2894-.3315.5852-.4922.8812-.1573.29-.3146.5788-.4617.8748-.15.3028-.29.6113-.4291.92-.0921.2039-.1962.4012-.2835.6078l-3.545.9159-1.1236.29a2.4785,2.4785,0,0,0-1.8585,2.4V71.1069a2.4785,2.4785,0,0,0,1.8585,2.4l1.1236.29,3.545.916c.0875.2069.1917.4047.284.609.1394.3084.2782.6165.4284.9187.1472.2961.3047.5854.462.8754.1607.2961.321.5918.4921.8812.1677.2835.3451.56.5225.8367.1806.2818.3607.5634.5512.8381.1879.2712.3852.5345.5825.7984.1993.2666.3982.5329.6068.7919.2068.2567.4224.5052.6381.7542.2172.2508.4338.5013.66.7441s.4587.475.6923.7086.4667.4671.7086.6923.4933.4426.7441.66c.249.2156.4974.4312.7541.638.2594.209.5261.408.7932.6077.2633.1968.5261.3937.7965.5812.2751.1908.5571.3712.8395.5521.2767.1773.5528.3545.8361.5221.2895.1712.5854.3315.8815.4924.29.1573.5788.3145.8746.4616.3027.15.6112.29.92.4291.2041.0922.4014.1962.608.2836l.9159,3.5449.29,1.1236a2.4785,2.4785,0,0,0,2.4,1.8585H71.1086a2.4786,2.4786,0,0,0,2.4-1.8585l.29-1.1236.916-3.545c.2069-.0874.4045-.1916.6087-.2839.3085-.1394.6167-.2783.9189-.4285.2962-.1472.5855-.3047.8756-.4621.2959-.1607.5916-.3209.8809-.4919.2838-.1678.56-.3453.8374-.5229.2815-.18.5628-.36.8373-.5506.2716-.1882.5354-.3858.8-.5835.266-.199.5318-.3973.79-.6055s.5064-.4234.7561-.64.5-.4327.7422-.6581.4759-.46.71-.6938.4664-.466.6913-.7076.4429-.4935.66-.7445c.2156-.2489.431-.4972.6376-.7538.2091-.26.4084-.5266.6082-.7938.1967-.2631.3933-.5256.5807-.7958.1911-.2756.3718-.558.5529-.8408.1769-.276.3537-.5515.5209-.8342.1717-.29.3325-.587.4937-.884.1568-.289.3138-.5774.46-.8724.1507-.3033.29-.6123.43-.9218.092-.2036.1959-.4006.283-.6069l3.5449-.9159,1.1236-.29a2.4785,2.4785,0,0,0,1.8585-2.4V56.8933a2.4786,2.4786,0,0,0-1.8585-2.4ZM64.0017,85.2781a21.2546,21.2546,0,1,1,20.8457-16.99A21.2113,21.2113,0,0,1,64.0017,85.2781Z" fill="#fff"/><path d="M64.0015,47.6517a16.3112,16.3112,0,0,0-3.551.4l.8755,3.9319A12.3141,12.3141,0,1,1,51.6839,64h-4.03a16.3483,16.3483,0,1,0,16.348-16.3485Z" fill="#fff"/><path d="M64.0015,55.7671a8.2126,8.2126,0,0,0-1.7882.2014l.8762,3.9352A4.1993,4.1993,0,1,1,59.7993,64h-4.03a8.2328,8.2328,0,1,0,8.2326-8.2331Z" fill="#fff"/></svg>