<svg xmlns="http://www.w3.org/2000/svg" width="128" height="128" viewBox="0 0 128 128"><title>Dialogflow Enterprise Edition</title><path d="M126.4738,58.12,100.1694,12.3782A11.5551,11.5551,0,0,0,90.3056,6.5H37.6969a11.5486,11.5486,0,0,0-9.865,5.8757L1.5275,58.0261a11.4753,11.4753,0,0,0-.0023,11.4366L27.83,115.4133A11.7726,11.7726,0,0,0,37.6938,121.5H90.3021a11.7264,11.7264,0,0,0,9.8661-6.06l26.3031-45.7447A11.728,11.728,0,0,0,126.4738,58.12Z" fill="#4285f4"/><path d="M92.3751,43.7l-56.9338.1221L56.316,64.697,35.4944,78.1832,53.9254,96.6143l-1.9973,3.6214L73.18,121.4878H90.31a11.7238,11.7238,0,0,0,9.864-6.0592l23.3392-40.59Z" opacity="0.07" style="isolation:isolate"/><path d="M64.4763,59.3615,92.3751,43.7,67.0874,29.1a6.1467,6.1467,0,0,0-6.1468,0L35.4413,43.8223Z" fill="#fff"/><path d="M64.5422,65.9172l-30.4943-16.32V74.646A5.0469,5.0469,0,0,0,36.542,79l13.7407,8.0568a2.497,2.497,0,0,1,1.234,2.154v9.9937a1.4938,1.4938,0,0,0,2.2344,1.2973L91.4352,78.99A5.0469,5.0469,0,0,0,93.98,74.607V49.3917Z" fill="#fff"/></svg>