<svg id="Layer_1" data-name="Layer 1" xmlns="http://www.w3.org/2000/svg" width="128" height="128" viewBox="0 0 128 128">
  <title>Persistent Disk</title>
  <g>
    <path d="M126.47,58.12l-26.3-45.74A11.56,11.56,0,0,0,90.31,6.5H37.7a11.55,11.55,0,0,0-9.86,5.88L1.53,58a11.48,11.48,0,0,0,0,11.44l26.3,46a11.77,11.77,0,0,0,9.86,6.09H90.3a11.73,11.73,0,0,0,9.87-6.06l26.3-45.74A11.73,11.73,0,0,0,126.47,58.12Z" style="fill: #4285f4"/>
    <path d="M83,40,51,44,45,60l5,5-5,9,5,5-5,9,33.5,33.5H90.3a11.73,11.73,0,0,0,9.87-6.06l21.27-37Z" style="opacity: 0.070000000298023;isolation: isolate"/>
    <polygon points="74 68 74 79 45 79 45 88 83 88 83 68 74 68" style="fill: #fff"/>
    <polygon points="54 60 54 49 83 49 83 40 45 40 45 60 54 60" style="fill: #fff"/>
    <polygon points="59 54 59 65 45 65 45 74 69 74 69 63 83 63 83 54 59 54" style="fill: #fff"/>
  </g>
</svg>
