<svg xmlns="http://www.w3.org/2000/svg" width="128" height="128" viewBox="0 0 128 128"><title>API Monetization</title><path d="M126.4738,58.12,100.1694,12.3782A11.5551,11.5551,0,0,0,90.3056,6.5H37.6969a11.5486,11.5486,0,0,0-9.865,5.8757L1.5275,58.0261a11.4753,11.4753,0,0,0-.0023,11.4366L27.83,115.4133A11.7726,11.7726,0,0,0,37.6938,121.5H90.3021a11.7264,11.7264,0,0,0,9.8661-6.06l26.3031-45.7447A11.728,11.728,0,0,0,126.4738,58.12Z" fill="#4285f4"/><path d="M84.58,36.5768l-5.5474,5.5474,5.6291,5.6291-5.6291,5.3782,5.5037,5.5037-2.7384-.5836L71.3306,47.5841l-5.5474,5.5474,5.5935,5.5934-5.5935,5.4139,5.5255,5.5255-1.9538.201L58.081,58.5914l-5.5474,5.5474,5.6083,5.6084-2.97,10.1973L44.8229,69.5952l-5.53,16.695,35.21,35.21h15.8a11.7264,11.7264,0,0,0,9.8661-6.06l23.1-40.1744Z" opacity="0.07"/><path d="M45.98,83.513a3.9226,3.9226,0,1,1-7.8452,0V72.3724a3.9226,3.9226,0,0,1,7.8452,0Z" fill="#fff"/><path d="M59.23,83.513a3.9226,3.9226,0,1,1-7.8452,0V72.3724a3.9226,3.9226,0,0,1,7.8452,0Z" fill="#fff"/><path d="M72.4795,83.513a3.9226,3.9226,0,0,1-7.8452,0V72.3724a3.9226,3.9226,0,0,1,7.8452,0Z" fill="#fff"/><path d="M85.729,83.513a3.9226,3.9226,0,0,1-7.8452,0V72.3724a3.9226,3.9226,0,0,1,7.8452,0Z" fill="#fff"/><circle cx="55.3073" cy="61.3651" r="3.9226" transform="translate(-27.1925 57.0816) rotate(-45)" fill="#fff"/><circle cx="68.5569" cy="61.3651" r="3.9226" transform="translate(-23.3118 66.4505) rotate(-45)" fill="#fff"/><circle cx="68.5569" cy="50.3578" r="3.9226" transform="translate(-15.5285 63.2265) rotate(-45)" fill="#fff"/><circle cx="81.8065" cy="61.3651" r="3.9226" transform="translate(-19.4311 75.8193) rotate(-45)" fill="#fff"/><circle cx="81.8065" cy="50.3578" r="3.9226" transform="translate(-11.6478 72.5954) rotate(-45)" fill="#fff"/><circle cx="81.8065" cy="39.3505" r="3.9226" transform="translate(-3.8644 69.3714) rotate(-45)" fill="#fff"/></svg>