<svg xmlns="http://www.w3.org/2000/svg" width="128" height="128" viewBox="0 0 128 128"><title>Apigee API Platform</title><path d="M126.4738,58.12,100.1694,12.3781A11.5551,11.5551,0,0,0,90.3056,6.5H37.6969a11.5486,11.5486,0,0,0-9.865,5.8757L1.5275,58.026a11.4753,11.4753,0,0,0-.0023,11.4366L27.83,115.4132A11.7726,11.7726,0,0,0,37.6938,121.5H90.3021a11.7264,11.7264,0,0,0,9.8661-6.06l26.3031-45.7447A11.728,11.728,0,0,0,126.4738,58.12Z" fill="#4285f4"/><path d="M87.9,40.2254l-18.0247,1.4-6.5,6.5L54.75,39.5l-13.125,1.875-2.5,12.25,10,10-10.25,10.25L40.1569,87.843,73.814,121.5H90.3023a11.7263,11.7263,0,0,0,9.8661-6.06l22.98-39.9656Z" opacity="0.07"/><path d="M82.8639,64l4.98-4.98A13.3388,13.3388,0,0,0,68.9793,40.1572L64,45.1363l-4.98-4.98A13.3388,13.3388,0,0,0,40.1574,59.0211L45.1366,64,40.1574,68.98A13.3384,13.3384,0,1,0,59.0207,87.843L64,82.8635l4.98,4.9794A13.3384,13.3384,0,1,0,87.8432,68.98ZM64,72.839a8.8388,8.8388,0,0,1-8.8381-8.8363v-.0051a8.8387,8.8387,0,0,1,8.8349-8.8363h.0079a8.8389,8.8389,0,0,1,8.8349,8.8367v.0042A8.839,8.839,0,0,1,64.001,72.839Zm8.6445-29.0175A8.1563,8.1563,0,0,1,84.1789,55.3563l-4.9794,4.9794L67.6647,48.8008ZM43.8217,55.3563A8.1563,8.1563,0,0,1,55.3565,43.8215l4.9794,4.9793L48.8011,60.3357ZM55.3561,84.1791A8.1563,8.1563,0,0,1,43.8213,72.6443l4.98-4.98L60.3359,79.1993Zm28.8232,0a8.1563,8.1563,0,0,1-11.5348,0l-4.98-4.98L79.2,67.6645l4.98,4.98A8.1563,8.1563,0,0,1,84.1793,84.179Z" fill="#fff"/></svg>