<svg id="Layer_1" data-name="Layer 1" xmlns="http://www.w3.org/2000/svg" width="128" height="128" viewBox="0 0 128 128">
  <title>Cloud Endpoints</title>
  <g>
    <path d="M126.47,58.12l-26.3-45.74A11.56,11.56,0,0,0,90.31,6.5H37.7a11.55,11.55,0,0,0-9.86,5.88L1.53,58a11.48,11.48,0,0,0,0,11.44l26.3,46a11.77,11.77,0,0,0,9.86,6.09H90.3a11.73,11.73,0,0,0,9.87-6.06l26.3-45.74A11.73,11.73,0,0,0,126.47,58.12Z" style="fill: #4285f4"/>
    <path d="M96.72,63.16,84.5,69.44,79,64l-21.46-.6-10-10L35.13,64l8.45,13.2,44.3,44.3H90.3a11.73,11.73,0,0,0,9.87-6.06l17.83-31Z" style="opacity: 0.070000000298023;isolation: isolate"/>
    <g id="art">
      <g>
        <polygon points="79.04 63.99 76.18 61.13 51.82 61.13 48.96 63.99 51.82 66.85 51.82 66.84 76.18 66.84 76.18 66.85 79.04 63.99" style="fill: #fff"/>
        <path d="M47.58,73.1,38.48,64l9.09-9.09a1.09,1.09,0,0,0,0-1.54l-2.51-2.51a1.09,1.09,0,0,0-1.53,0L31.14,63.23a1.09,1.09,0,0,0,0,1.54l2.51,2.51h0l9.86,9.86a1.09,1.09,0,0,0,1.54,0l2.51-2.51a1.09,1.09,0,0,0,0-1.54" style="fill: #fff"/>
        <path d="M80.42,54.91l9.1,9.1L80.43,73.1a1.09,1.09,0,0,0,0,1.54l2.51,2.51a1.09,1.09,0,0,0,1.54,0L96.85,64.77a1.09,1.09,0,0,0,0-1.54l-2.51-2.51h0l-9.86-9.86a1.09,1.09,0,0,0-1.54,0l-2.51,2.51a1.09,1.09,0,0,0,0,1.54" style="fill: #fff"/>
      </g>
    </g>
  </g>
</svg>
