<svg id="Layer_1" data-name="Layer 1" xmlns="http://www.w3.org/2000/svg" width="16" height="16" viewBox="0 0 16 16">
  <g id="art">
    <g>
      <path d="M8,4.64a4.91,4.91,0,1,0,4.91,4.91A4.91,4.91,0,0,0,8,4.64m0,8.63a3.72,3.72,0,1,1,3.72-3.72A3.72,3.72,0,0,1,8,13.27"/>
      <path d="M15.7,9l-2-.64a5.78,5.78,0,0,1,.13,1.22,5.87,5.87,0,0,1-.06.86h2a0.36,0.36,0,0,0,.3-0.34V9.3A0.36,0.36,0,0,0,15.7,9"/>
      <path d="M8,3.77a5.83,5.83,0,0,1,1.2.12l-0.73-2a0.36,0.36,0,0,0-.34-0.3H7.82a0.36,0.36,0,0,0-.34.3l-0.64,2A5.8,5.8,0,0,1,8,3.77"/>
      <path d="M2.22,9.55a5.78,5.78,0,0,1,.13-1.22L0.3,9A0.36,0.36,0,0,0,0,9.3v0.77a0.36,0.36,0,0,0,.3.34h2a5.79,5.79,0,0,1-.06-0.86"/>
      <path d="M9.75,7.94l-0.46.46h0a1.77,1.77,0,0,0-2.5,2.5l-0.46.46A2.42,2.42,0,1,0,9.75,7.94m-1,2.4a1.12,1.12,0,1,1,0-1.59,1.12,1.12,0,0,1,0,1.59"/>
    </g>
  </g>
</svg>
