<svg xmlns="http://www.w3.org/2000/svg" width="128" height="128" viewBox="0 0 128 128"><title>Cloud Composer</title><path d="M126.4738,58.12,100.1694,12.3782A11.5551,11.5551,0,0,0,90.3056,6.5H37.6969a11.5486,11.5486,0,0,0-9.865,5.8757L1.5275,58.0261a11.4753,11.4753,0,0,0-.0023,11.4366L27.83,115.4133A11.7726,11.7726,0,0,0,37.6938,121.5H90.3021a11.7264,11.7264,0,0,0,9.8661-6.06l26.3031-45.7447A11.728,11.728,0,0,0,126.4738,58.12Z" fill="#4285f4"/><path d="M84.6442,35.7685,81.167,37.4167l-37.83,9.53L48.3,51.9089,43.3426,77.1424l4.75,4.75L43.3549,92.2317,72.6232,121.5H90.3021a11.7264,11.7264,0,0,0,9.8661-6.06l23.4187-40.7283Z" opacity="0.07"/><path d="M58.4335,46.9465H43.3375V35.7686H84.6442V46.9222H69.6781V61.9569H58.4335Z" fill="#fff"/><path d="M43.3426,50.9353H54.4779V65.8905h15.073V92.2317h-11.13V77.1424H43.3426Z" fill="#fff"/><path d="M73.5467,50.9214H84.6631v41.31H73.5467Z" fill="#fff"/><path d="M54.4061,92.2317H43.3549V81.11H54.4061Z" fill="#fff"/></svg>