<svg id="Layer_1" data-name="Layer 1" xmlns="http://www.w3.org/2000/svg" width="128" height="128" viewBox="0 0 128 128">
  <title>Genomics</title>
  <g>
    <path d="M126.47,58.12l-26.3-45.74A11.56,11.56,0,0,0,90.31,6.5H37.7a11.55,11.55,0,0,0-9.86,5.88L1.53,58a11.48,11.48,0,0,0,0,11.44l26.3,46a11.77,11.77,0,0,0,9.86,6.09H90.3a11.73,11.73,0,0,0,9.87-6.06l26.3-45.74A11.73,11.73,0,0,0,126.47,58.12Z" style="fill: #4285f4"/>
    <path d="M88,36.74l-5.27,5.95-4.16-3.27-14.47-.05L40.65,41.48,50.17,51,48.75,55.2,67.83,74.28l-10.41.8-3.54-2.78-5.71,5.63L59.46,89.21l-10.13-.66-3.72-3-5.44,5.86,30,30H90.3a11.73,11.73,0,0,0,9.87-6.06l24.3-42.26Z" style="opacity: 0.070000000298023;isolation: isolate"/>
    <g id="art">
      <g>
        <polygon points="52.95 54.79 68.87 54.79 70.72 52.95 68.87 51.1 52.95 51.1 52.95 54.79" style="fill: #fff"/>
        <circle cx="50.83" cy="52.94" r="3.08" style="fill: #fff"/>
        <circle cx="77.17" cy="52.94" r="4" style="fill: #fff"/>
      </g>
      <g>
        <polygon points="57.4 75.06 59.25 76.91 74.94 76.91 74.94 73.22 59.25 73.22 57.4 75.06" style="fill: #fff"/>
        <circle cx="50.98" cy="75.06" r="4" style="fill: #fff"/>
        <circle cx="77.09" cy="75.06" r="3.08" style="fill: #fff"/>
      </g>
      <g>
        <polygon points="45.04 41.27 76.75 41.27 78.59 39.43 76.75 37.59 45.04 37.58 45.04 41.27" style="fill: #fff"/>
        <circle cx="42.96" cy="39.43" r="3.07" style="fill: #fff"/>
        <circle cx="85.05" cy="39.43" r="4" style="fill: #fff"/>
      </g>
      <g>
        <polygon points="49.32 88.57 51.17 90.42 82.91 90.42 82.91 86.73 51.17 86.73 49.32 88.57" style="fill: #fff"/>
        <circle cx="42.93" cy="88.57" r="4" style="fill: #fff"/>
        <circle cx="85.06" cy="88.57" r="3.08" style="fill: #fff"/>
      </g>
      <circle cx="64" cy="64" r="4" style="fill: #fff"/>
    </g>
  </g>
</svg>
