<svg id="Layer_1" data-name="Layer 1" xmlns="http://www.w3.org/2000/svg" width="16" height="16" viewBox="0 0 16 16">
  <g id="art">
    <path d="M14.67,3.74L8.36,0.1a0.72,0.72,0,0,0-.72,0L1.33,3.74A0.72,0.72,0,0,0,1,4.36v7.28a0.72,0.72,0,0,0,.36.62L7.64,15.9a0.72,0.72,0,0,0,.72,0l6.31-3.64A0.72,0.72,0,0,0,15,11.64V4.36A0.72,0.72,0,0,0,14.67,3.74ZM13.8,10.94L11.6,9.67V6.33L8.35,8.2V12l2.9-1.67,2.2,1.27L8,14.7,2.55,11.55l2.2-1.27L7.65,12V8.2L4.4,6.33V9.67L2.2,10.94V4.65L7.65,1.51V4L4.75,5.72,8,7.59l3.25-1.88L8.35,4V1.51L13.8,4.65v6.29h0Z"/>
  </g>
</svg>
