<svg id="Layer_1" data-name="Layer 1" xmlns="http://www.w3.org/2000/svg" width="24" height="24" viewBox="0 0 24 24">
  <title>modifiers_preemptable-vm</title>
  <g>
    <rect x="14" y="19" width="2" height="2"/>
    <rect x="18" y="19" width="2" height="2"/>
    <rect x="18" y="11" width="2" height="2"/>
    <rect x="14" y="3" width="2" height="2"/>
    <rect x="18" y="3" width="2" height="2"/>
    <path d="M6.57,10.32,10,17l3-4h3V11H12l-1.74,2.34L7,7,5,9.21V5h7V3H5A2,2,0,0,0,3,5V19a2,2,0,0,0,2,2h7V19H5V12Z"/>
  </g>
</svg>
