<svg id="Layer_1" data-name="Layer 1" xmlns="http://www.w3.org/2000/svg" width="128" height="128" viewBox="0 0 128 128">
  <title>Cloud Dataproc</title>
  <g>
    <path d="M126.47,58.12l-26.3-45.74A11.56,11.56,0,0,0,90.31,6.5H37.7a11.55,11.55,0,0,0-9.86,5.88L1.53,58a11.48,11.48,0,0,0,0,11.44l26.3,46a11.77,11.77,0,0,0,9.86,6.09H90.3a11.73,11.73,0,0,0,9.87-6.06l26.3-45.74A11.73,11.73,0,0,0,126.47,58.12Z" style="fill: #4285f4"/>
    <path d="M71.47,37.5,57,39,52.56,71.22l-12.81.28-3,16,34,34H90.3a11.73,11.73,0,0,0,9.87-6.06l18-31.26Z" style="opacity: 0.070000000298023;isolation: isolate"/>
    <g id="art">
      <g>
        <path d="M73.4,40h0A12,12,0,1,1,63,34,12,12,0,0,1,73.4,40Zm-15.45,8.9A5.83,5.83,0,1,0,57.17,46,5.85,5.85,0,0,0,57.95,48.91Z" style="fill: #fff"/>
        <path d="M51,75.4A15,15,0,0,1,57,80V50l-6-4Z" style="fill: #fff"/>
        <path d="M93.13,71.86h0a12,12,0,1,1-4.39-4.38A12,12,0,0,1,93.13,71.87ZM77.7,80.79A5.83,5.83,0,0,0,87.78,75h0A5.83,5.83,0,0,0,77.7,80.79Z" style="fill: #fff"/>
        <path d="M55.78,55.38l26.5,15.3,6.46-3.2-26-15A15,15,0,0,1,55.78,55.38Z" style="fill: #fff"/>
        <path d="M55.62,73h0a12,12,0,1,1-16.39-4.4A11.92,11.92,0,0,1,55.62,73ZM40.19,81.94a5.83,5.83,0,1,0,10.09-5.82h0a5.83,5.83,0,0,0-10.09,5.83Z" style="fill: #fff"/>
        <path d="M79.41,66.22l-27.71,16-.39,7.15,25-14.45C76,72.45,78.42,68.66,79.41,66.22Z" style="fill: #fff"/>
      </g>
    </g>
  </g>
</svg>
