<svg xmlns="http://www.w3.org/2000/svg" width="128" height="128" viewBox="0 0 128 128"><title>Partner Interconnect</title><path d="M126.4738,58.12,100.1694,12.3782A11.5551,11.5551,0,0,0,90.3056,6.5H37.6969a11.5486,11.5486,0,0,0-9.865,5.8757L1.5275,58.026a11.4753,11.4753,0,0,0-.0023,11.4366L27.83,115.4133A11.7726,11.7726,0,0,0,37.6938,121.5H90.3021a11.7264,11.7264,0,0,0,9.8661-6.06l26.3031-45.7447A11.728,11.728,0,0,0,126.4738,58.12Z" fill="#4285f4"/><path d="M100.1681,115.4395l21.78-37.8785L83.6866,39.2993,44,45l8.3843,8.3843L27,67,46.0235,86.0235,44.3,88.69,77.11,121.5H90.3021A11.7263,11.7263,0,0,0,100.1681,115.4395Z" opacity="0.07" style="isolation:isolate"/><rect x="61" y="45.0001" width="6" height="37.9998" fill="#fff"/><rect x="27.0001" y="61" width="10" height="6" fill="#fff"/><rect x="36.0001" y="52" width="17.9999" height="23.9999" rx="0.8895" ry="0.8895" fill="#fff"/><rect x="61" y="45.0001" width="6" height="37.9998" fill="#fff"/><rect x="90.9999" y="61" width="10" height="6" fill="#fff"/><path d="M44,83v4.9554A1.0445,1.0445,0,0,0,45.0446,89H82.9554A1.0445,1.0445,0,0,0,84,87.9553V83Z" fill="#fff"/><path d="M82.9554,39H45.0446A1.0446,1.0446,0,0,0,44,40.0446V45H84V40.0446A1.0446,1.0446,0,0,0,82.9554,39Z" fill="#fff"/><rect x="74" y="52" width="17.9999" height="23.9999" rx="0.8895" ry="0.8895" fill="#fff"/></svg>