<svg id="Layer_1" data-name="Layer 1" xmlns="http://www.w3.org/2000/svg" width="128" height="128" viewBox="0 0 128 128">
  <title>App Engine</title>
  <g>
    <path d="M126.47,58.12l-26.3-45.74A11.56,11.56,0,0,0,90.31,6.5H37.7a11.55,11.55,0,0,0-9.86,5.88L1.53,58a11.48,11.48,0,0,0,0,11.44l26.3,46a11.77,11.77,0,0,0,9.86,6.09H90.3a11.73,11.73,0,0,0,9.87-6.06l26.3-45.74A11.73,11.73,0,0,0,126.47,58.12Z" style="fill: #4285f4"/>
    <path d="M101.27,62l-.69-.21L65.68,26.88,58.52,37.35l6,6L49.25,48.91l-6,15.18-5.86-5.86L26.88,67.51l54,54H90.3a11.73,11.73,0,0,0,9.87-6.06L120.08,80.8Z" style="opacity: 0.070000000298023;isolation: isolate"/>
    <g id="art">
      <g>
        <path d="M64,41A23,23,0,1,0,87,64,23,23,0,0,0,64,41m0,40.53A17.49,17.49,0,1,1,81.48,64,17.48,17.48,0,0,1,64,81.49" style="fill: #fff"/>
        <path d="M100.14,61.27l-9.61-3A27.15,27.15,0,0,1,91.15,64a27.57,27.57,0,0,1-.3,4.05h9.3a1.69,1.69,0,0,0,1.43-1.57V62.85a1.69,1.69,0,0,0-1.43-1.57" style="fill: #fff"/>
        <path d="M64,36.85a27.39,27.39,0,0,1,5.63.59l-3.45-9.57a1.69,1.69,0,0,0-1.58-1.43H63.16a1.68,1.68,0,0,0-1.58,1.43l-3,9.53a27.26,27.26,0,0,1,5.4-.54" style="fill: #fff"/>
        <path d="M36.85,64a27.15,27.15,0,0,1,.61-5.75l-9.61,3a1.69,1.69,0,0,0-1.43,1.58v3.63a1.69,1.69,0,0,0,1.43,1.57h9.3a27.18,27.18,0,0,1-.3-4.05" style="fill: #fff"/>
        <path d="M72.23,56.48,70,58.66h0A8.3,8.3,0,0,0,58.31,70.4l-2.18,2.18a11.38,11.38,0,1,0,16.1-16.1m-4.5,11.25a5.28,5.28,0,1,1,0-7.46,5.24,5.24,0,0,1,0,7.46" style="fill: #fff"/>
      </g>
    </g>
  </g>
</svg>
