<svg id="Layer_1" data-name="Layer 1" xmlns="http://www.w3.org/2000/svg" width="16" height="16" viewBox="0 0 16 16">
  <title>Cloud-Dataproc44</title>
  <path d="M15.58,10.43A3.12,3.12,0,0,0,14.44,9.3l-0.12,0-5-2.88A3.12,3.12,0,1,0,4.64,3.76h0V9.56a3.09,3.09,0,0,0-3.06,0h0A3.12,3.12,0,0,0,4.68,15h0v0l5.08-2.94a3.09,3.09,0,0,0,.41,1.52A3.12,3.12,0,1,0,15.58,10.43Zm-9.4,1.32V6.39a3.11,3.11,0,0,0,.53.25l4.61,2.67h0a3.13,3.13,0,0,0-.51.38L6.23,12.31A3.08,3.08,0,0,0,6.18,11.75ZM7,2.39a1.52,1.52,0,1,1-.77,1.32A1.52,1.52,0,0,1,7,2.39ZM3.9,13.6a1.52,1.52,0,1,1,.57-2.07A1.52,1.52,0,0,1,3.9,13.6Zm9.76-.33a1.52,1.52,0,0,1-2.09-.5h0a1.52,1.52,0,1,1,2.63-1.53l0.07,0.12A1.52,1.52,0,0,1,13.65,13.27Z"/>
</svg>
