<svg id="Layer_1" data-name="Layer 1" xmlns="http://www.w3.org/2000/svg" width="24" height="24" viewBox="0 0 24 24">
  <title>modifiers_custom-virtual-machine</title>
  <path d="M19.78,2H4.22A2.23,2.23,0,0,0,2,4.22V19.78A2.23,2.23,0,0,0,4.22,22H19.78A2.23,2.23,0,0,0,22,19.78V4.22A2.23,2.23,0,0,0,19.78,2ZM3.5,9.5v-3A1.54,1.54,0,0,1,5,5H8.5V6.5H5v3H8.5V11H5A1.54,1.54,0,0,1,3.5,9.5ZM9,19H7.5L5.75,13h1.5l1,3.43,1-3.43h1.5Zm.5-9.5V5H11V9.5h2V5h1.5V9.5A1.54,1.54,0,0,1,13,11H11A1.54,1.54,0,0,1,9.5,9.5ZM18.25,19h-1.5V14.5h-1V19h-1.5V14.5h-1V19h-1.5V14.5a1.54,1.54,0,0,1,1.5-1.5h1a1.44,1.44,0,0,1,.75.22,1.44,1.44,0,0,1,.75-.22h1a1.54,1.54,0,0,1,1.5,1.5ZM20.5,6.5H17v.75h2a1.54,1.54,0,0,1,1.5,1.5V9.5A1.54,1.54,0,0,1,19,11H15.5V9.5H19V8.75H17a1.54,1.54,0,0,1-1.5-1.5V6.5A1.54,1.54,0,0,1,17,5h3.5Z"/>
</svg>
