<svg id="Layer_1" data-name="Layer 1" xmlns="http://www.w3.org/2000/svg" width="128" height="128" viewBox="0 0 128 128">
  <title>Cloud Speech API</title>
  <g>
    <path d="M126.47,58.12l-26.3-45.74A11.56,11.56,0,0,0,90.31,6.5H37.7a11.55,11.55,0,0,0-9.86,5.88L1.53,58a11.48,11.48,0,0,0,0,11.44l26.3,46a11.77,11.77,0,0,0,9.86,6.09H90.3a11.73,11.73,0,0,0,9.87-6.06l26.3-45.74A11.73,11.73,0,0,0,126.47,58.12Z" style="fill: #4285f4"/>
    <path d="M94,48,89,62,68,41,65.26,62.26,55,52l-2.58,6.42L42,48,38,61.54l3.34,14.11L34,80l41.5,41.5H90.3a11.73,11.73,0,0,0,9.87-6.06l22.37-38.9Z" style="opacity: 0.070000000298023;isolation: isolate"/>
    <rect x="34" y="48" width="8" height="32" style="fill: #fff"/>
    <rect x="86" y="48" width="8" height="32" style="fill: #fff"/>
    <rect x="60" y="41" width="8" height="46" style="fill: #fff"/>
    <rect x="47" y="52" width="8" height="24" style="fill: #fff"/>
    <rect x="73" y="56" width="8" height="16" style="fill: #fff"/>
  </g>
</svg>
