<svg id="Layer_1" data-name="Layer 1" xmlns="http://www.w3.org/2000/svg" width="128" height="128" viewBox="0 0 128 128">
  <title>Cloud Jobs API</title>
  <g>
    <path d="M126.47,58.12l-26.3-45.74A11.56,11.56,0,0,0,90.31,6.5H37.7a11.55,11.55,0,0,0-9.86,5.88L1.53,58a11.48,11.48,0,0,0,0,11.44l26.3,46a11.77,11.77,0,0,0,9.86,6.09H90.3a11.73,11.73,0,0,0,9.87-6.06l26.3-45.74A11.73,11.73,0,0,0,126.47,58.12Z" style="fill: #4285f4"/>
    <path d="M100.17,115.44,117.7,84.95,80.63,47.88,64,43.43,49.07,49,43.3,64l4.64,16.73L88.71,121.5H90.3A11.73,11.73,0,0,0,100.17,115.44Z" style="opacity: 0.070000000298023;isolation: isolate"/>
    <path d="M64,40.8A23.2,23.2,0,1,0,87.19,64h0A23.2,23.2,0,0,0,64,40.8M64,81.6A17.6,17.6,0,1,1,81.6,64h0A17.6,17.6,0,0,1,64,81.6h0" style="fill: #fff"/>
    <path d="M80.69,78.29l-2.4,2.4a1.09,1.09,0,0,0,0,1.54l9.11,9.11a1.09,1.09,0,0,0,1.54,0l2.4-2.4a1.09,1.09,0,0,0,0-1.54l-9.12-9.12a1.09,1.09,0,0,0-1.54,0" style="fill: #fff"/>
    <rect x="53" y="58" width="22" height="15" rx="1.59" ry="1.59" style="fill: #fff"/>
    <path d="M68,55v3H60V55ZM58,55v6H70V55a2,2,0,0,0-2-2H60A2,2,0,0,0,58,55Z" style="fill: #fff"/>
  </g>
</svg>
