<svg id="Layer_1" data-name="Layer 1" xmlns="http://www.w3.org/2000/svg" width="128" height="128" viewBox="0 0 128 128">
  <title>Cloud Machine Learning</title>
  <g>
    <path d="M126.47,58.12l-26.3-45.74A11.56,11.56,0,0,0,90.31,6.5H37.7a11.55,11.55,0,0,0-9.86,5.88L1.53,58a11.48,11.48,0,0,0,0,11.44l26.3,46a11.77,11.77,0,0,0,9.86,6.09H90.3a11.73,11.73,0,0,0,9.87-6.06l26.3-45.74A11.73,11.73,0,0,0,126.47,58.12Z" style="fill: #4285f4"/>
    <path d="M80.18,35,68,41l-6-6L40.86,47l4.64,4.64L33.9,69,41,76.06,47.82,93l28.5,28.5h14a11.73,11.73,0,0,0,9.87-6.06l22.07-38.38Z" style="opacity: 0.070000000298023;isolation: isolate"/>
    <polygon points="79.93 74 82.85 69 94.1 69 97 64 89.46 51 77.73 51 74.33 45 71 45 71 41 76.67 41 80.06 47 87.14 47 80.18 35 66 35 66 52 72.02 52 74.35 56 66 56 66 64 73.6 64 77.06 58 86.38 58 88.69 62 79.37 62 75.9 68 66 68 66 83 78.49 83 76.18 87 66 87 66 93 80.18 93 91.78 73 85.15 73 82.22 78 71 78 71 74 79.93 74" style="fill: #fff"/>
    <polygon points="48.07 74 45.15 69 33.9 69 31 64 38.54 51 50.27 51 53.67 45 57 45 57 41 51.33 41 47.94 47 40.86 47 47.82 35 62 35 62 52 55.98 52 53.65 56 62 56 62 64 54.4 64 50.94 58 41.62 58 39.3 62 48.63 62 52.1 68 62 68 62 83 49.51 83 51.82 87 62 87 62 93 47.82 93 36.22 73 42.85 73 45.78 78 57 78 57 74 48.07 74" style="fill: #fff"/>
  </g>
</svg>
