<svg id="Layer_1" data-name="Layer 1" xmlns="http://www.w3.org/2000/svg" width="128" height="128" viewBox="0 0 128 128">
  <title>Cloud Datastore</title>
  <path d="M126.47,58.12l-26.3-45.74A11.56,11.56,0,0,0,90.31,6.5H37.7a11.55,11.55,0,0,0-9.86,5.88L1.53,58a11.48,11.48,0,0,0,0,11.44l26.3,46a11.77,11.77,0,0,0,9.86,6.09H90.3a11.73,11.73,0,0,0,9.87-6.06l26.3-45.74A11.73,11.73,0,0,0,126.47,58.12Z" style="fill: #4285f4"/>
  <path d="M85.51,50.7,76,51.46l0,6.17-7-7-9.22,1,0,6.11-7.1-7.1L42.48,60.94l6.36,6.36-6.17.23-.14,9.86L86.65,121.5H90.3a11.73,11.73,0,0,0,9.87-6.06l18.28-31.8Z" style="opacity: 0.070000000298023;isolation: isolate"/>
  <path d="M51.84,50.32H43.33a1.21,1.21,0,0,0-1.21,1.21v8.55a1.21,1.21,0,0,0,1.21,1.21h8.51a1.21,1.21,0,0,0,1.21-1.21V51.53a1.22,1.22,0,0,0-1.21-1.21" style="fill: #fff"/>
  <path d="M68.25,66.72H59.74a1.21,1.21,0,0,0-1.21,1.21v8.55a1.21,1.21,0,0,0,1.21,1.21h8.51a1.21,1.21,0,0,0,1.21-1.21V67.93a1.21,1.21,0,0,0-1.21-1.21" style="fill: #fff"/>
  <path d="M84.67,66.72H76.15a1.21,1.21,0,0,0-1.21,1.21v8.55a1.21,1.21,0,0,0,1.21,1.21h8.51a1.21,1.21,0,0,0,1.21-1.21V67.93a1.21,1.21,0,0,0-1.21-1.21" style="fill: #fff"/>
  <path d="M51.84,66.72H43.33a1.22,1.22,0,0,0-1.21,1.21v8.55a1.21,1.21,0,0,0,1.21,1.21h8.51A1.21,1.21,0,0,0,53,76.47V67.93a1.22,1.22,0,0,0-1.21-1.21m-1.22,8.52H44.55V69.16h6.08Z" style="fill: #fff"/>
  <path d="M68.25,50.32H59.74a1.21,1.21,0,0,0-1.21,1.21v8.55a1.21,1.21,0,0,0,1.21,1.21h8.51a1.21,1.21,0,0,0,1.21-1.21V51.53a1.21,1.21,0,0,0-1.21-1.21M67,58.84H61V52.76H67Z" style="fill: #fff"/>
  <path d="M84.67,50.32H76.16a1.21,1.21,0,0,0-1.21,1.21v8.55a1.21,1.21,0,0,0,1.21,1.21h8.51a1.21,1.21,0,0,0,1.21-1.21V51.53a1.22,1.22,0,0,0-1.21-1.21m-1.22,8.52H77.37V52.76h6.08Z" style="fill: #fff"/>
</svg>
