<svg xmlns="http://www.w3.org/2000/svg" width="128" height="128" viewBox="0 0 128 128"><title>Cloud Armor</title><path d="M126.4738,58.12,100.1694,12.3782A11.5551,11.5551,0,0,0,90.3056,6.5H37.6969a11.5486,11.5486,0,0,0-9.865,5.8757L1.5275,58.0261a11.4753,11.4753,0,0,0-.0023,11.4366L27.83,115.4133A11.7726,11.7726,0,0,0,37.6938,121.5H90.3021a11.7264,11.7264,0,0,0,9.8661-6.06l26.3031-45.7447A11.728,11.728,0,0,0,126.4738,58.12Z" fill="#4285f4"/><path d="M93.06,41.5634,62.75,31.8706l-25.6649,11.75L38.5,74.3273l8.2753,15.0109L78.9374,121.5H90.3021a11.7263,11.7263,0,0,0,9.8661-6.06l24.3755-42.3923Z" opacity="0.07"/><path d="M64.0032,34.296,87.8654,44.9349V60.9416c0,15.1061-10.2023,29.0515-23.8672,32.7736C50.334,90.0036,40.1155,76.05,40.1155,60.934V44.9361l23.8877-10.64m.001-5.6869L34.921,41.5634V60.934c0,17.6875,12.2664,34.036,28.5425,38.0073l.5408.1316.5306-.1316c16.266-3.9713,28.525-20.32,28.525-38V41.5634L64.0043,28.6091Z" fill="#fff"/><polygon points="56.099 94.142 52.422 90.448 71.646 71.139 75.319 74.833 56.099 94.142" fill="#fff"/><polygon points="46.481 86.098 42.805 82.404 68.708 56.38 72.385 60.074 46.481 86.098" fill="#fff"/><polygon points="40.528 74.327 36.859 70.633 54.038 53.379 57.706 57.073 40.528 74.327" fill="#fff"/><circle cx="73.4563" cy="73.0579" r="4.9867" transform="translate(-30.1449 73.3395) rotate(-45)" fill="#fff"/><circle cx="70.5179" cy="58.3657" r="4.9867" transform="translate(-20.6166 66.9585) rotate(-45)" fill="#fff"/><circle cx="55.8435" cy="55.3789" r="4.9867" transform="translate(-22.8026 55.7073) rotate(-45)" fill="#fff"/></svg>