<svg id="Layer_1" data-name="Layer 1" xmlns="http://www.w3.org/2000/svg" width="128" height="128" viewBox="0 0 128 128">
  <title>Prediction-API</title>
  <path d="M126.47,58.12l-26.3-45.74A11.56,11.56,0,0,0,90.31,6.5H37.7a11.55,11.55,0,0,0-9.86,5.88L1.53,58a11.48,11.48,0,0,0,0,11.44l26.3,46a11.77,11.77,0,0,0,9.86,6.09H90.3a11.73,11.73,0,0,0,9.87-6.06l26.3-45.74A11.73,11.73,0,0,0,126.47,58.12Z" style="fill: #4285f4"/>
  <g>
    <polygon points="85.54 55.01 78.98 57.7 113.51 92.23 116.89 86.36 85.54 55.01" style="opacity: 0.070000000298023;isolation: isolate"/>
    <polygon points="108.39 101.15 111.76 95.28 80.34 63.85 73.78 66.54 108.39 101.15" style="opacity: 0.070000000298023;isolation: isolate"/>
    <path d="M94.67,35.27,83.13,41.8l4.33,4.33-3.28,2.73,34.46,34.46,7.83-13.62a11.2,11.2,0,0,0,.82-1.81Z" style="opacity: 0.070000000298023;isolation: isolate"/>
    <path d="M77.37,121.5H90.3a11.73,11.73,0,0,0,9.87-6.06l6.47-11.26L74.09,71.62l-4.53,6.25-13.43-24L37.37,81.5Z" style="opacity: 0.070000000298023;isolation: isolate"/>
  </g>
  <polygon points="43.65 78.35 39.97 76.15 56.09 49.27 71.57 75.4 67.88 77.59 56.07 57.65 43.65 78.35" style="fill: #fff"/>
  <circle cx="69.56" cy="76.22" r="6.45" style="fill: #fff"/>
  <circle cx="41.97" cy="76.97" r="6.45" style="fill: #fff"/>
  <path d="M77.48,68.72l-3.7-2.18,2.86-4.86,3.7,2.18Zm5.2-8.84L79,57.7l2.86-4.86L85.54,55ZM87.88,51l-3.7-2.18L87,44l3.7,2.18Z" style="fill: #fff"/>
  <polygon points="94.56 48.53 94.67 35.27 83.13 41.8 94.56 48.53" style="fill: #fff"/>
</svg>
