<svg xmlns="http://www.w3.org/2000/svg" width="128" height="128" viewBox="0 0 128 128"><title>Cloud AutoML</title><path d="M126.4738,58.12,100.1694,12.3782A11.5551,11.5551,0,0,0,90.3056,6.5H37.6969a11.5486,11.5486,0,0,0-9.865,5.8757L1.5275,58.0261a11.4753,11.4753,0,0,0-.0023,11.4366L27.83,115.4133A11.7726,11.7726,0,0,0,37.6938,121.5H90.3021a11.7264,11.7264,0,0,0,9.8661-6.06l26.3031-45.7447A11.728,11.728,0,0,0,126.4738,58.12Z" fill="#4285f4"/><path d="M78.6347,35.985l-.86,8-4.23,3.6-11.55-11.6-21.91,32.2.07,7.8,9.9,9.9-.7,6.1L78.8781,121.5H90.3019a11.7264,11.7264,0,0,0,9.8662-6.06l21.1458-36.7753Z" opacity="0.07" style="isolation:isolate"/><polygon points="78.635 49.335 82.485 42.665 78.635 35.995 70.295 35.995 74.145 42.665 70.295 49.335 78.635 49.335" fill="#fff"/><polygon points="61.945 35.995 48.255 35.995 32.645 63.025 40.155 76.025 55.555 49.335 61.945 49.335 65.795 42.665 61.945 35.995" fill="#fff"/><polygon points="49.355 78.635 45.505 85.305 49.355 91.985 57.695 91.985 53.845 85.305 57.695 78.635 49.355 78.635" fill="#fff"/><polygon points="87.835 51.945 72.435 78.635 66.045 78.635 62.195 85.305 66.045 91.985 79.745 91.985 95.345 64.945 87.835 51.945" fill="#fff"/></svg>