<svg xmlns="http://www.w3.org/2000/svg" width="128" height="128" viewBox="0 0 128 128"><title>Cloud TPU</title><path d="M126.4738,58.12,100.1694,12.3782A11.5551,11.5551,0,0,0,90.3056,6.5H37.6969a11.5486,11.5486,0,0,0-9.865,5.8757L1.5275,58.0261a11.4753,11.4753,0,0,0-.0023,11.4366L27.83,115.4133A11.7726,11.7726,0,0,0,37.6938,121.5H90.3021a11.7264,11.7264,0,0,0,9.8661-6.06l26.3031-45.7447A11.728,11.728,0,0,0,126.4738,58.12Z" fill="#4285f4"/><path d="M79.1429,37.5l-5.6606,6.394L67.0883,37.5l-5.0992,6.8223L55.1667,37.5,48.75,48.0832,37.5,55.1667l7.4943,7.4943L37.5,67.1548l6.5476,6.5476L37.5,79.1429,79.8571,121.5h10.445a11.7263,11.7263,0,0,0,9.8661-6.06l20.7782-36.136Z" opacity="0.07" style="isolation:isolate"/><path d="M49.281,57.5765a.9834.9834,0,0,1-.1311-1.958l6.047-.8208a.9834.9834,0,1,1,.2646,1.949l-6.047.8208A1.0069,1.0069,0,0,1,49.281,57.5765Z" fill="#fff"/><rect x="61.4583" y="51.7818" width="1.9667" height="11.4586" transform="translate(-11.5849 99.0629) rotate(-71.9521)" fill="#fff"/><path d="M56.3827,56.3525a.9841.9841,0,0,1-.9436-1.2618l2.2034-7.4673a.9833.9833,0,0,1,1.8863.5565l-2.2034,7.4673A.9838.9838,0,0,1,56.3827,56.3525Z" fill="#fff"/><path d="M69.8476,60.025a.9838.9838,0,0,1-.9142-1.3453L73.34,47.54a.9834.9834,0,1,1,1.8289.7236l-4.4069,11.14A.9839.9839,0,0,1,69.8476,60.025Z" fill="#fff"/><rect x="46.3219" y="71.5674" width="13.2187" height="1.9667" transform="translate(-33.7034 48.8913) rotate(-38.6117)" fill="#fff"/><rect x="73.5162" y="56.404" width="1.9668" height="10.4161" transform="translate(-11.7489 105.2862) rotate(-66.4478)" fill="#fff"/><rect x="72.9449" y="68.0633" width="1.9667" height="11.6619" transform="translate(-30.5512 77.0223) rotate(-46.7017)" fill="#fff"/><rect x="56.3781" y="55.9151" width="1.9667" height="10.6593" transform="translate(-11.0432 12.6438) rotate(-11.4818)" fill="#fff"/><rect x="57.291" y="63.0361" width="14.3411" height="1.9669" transform="translate(-26.2199 58.4818) rotate(-41.3083)" fill="#fff"/><rect x="64.4514" y="63.5258" width="10.4664" height="1.9667" transform="translate(0.9543 130.0341) rotate(-86.4237)" fill="#fff"/><circle cx="58.5671" cy="68.5897" r="3.5776" fill="#fff"/><circle cx="70.0003" cy="59.5147" r="4.2417" fill="#fff"/><circle cx="69.9687" cy="70.4866" r="2.2218" fill="#fff"/><circle cx="56.0156" cy="55.0639" r="2.6097" fill="#fff"/><path d="M72.8333,37.5v6.31H67.0883V37.5H60.9053v6.31H55.1667V37.5h-6.31v6.31A5.4282,5.4282,0,0,0,43.81,48.8572H37.5v6.31h6.31v5.6786H37.5v6.31h6.31v5.6786H37.5v6.31h6.31a5.4282,5.4282,0,0,0,5.0476,5.0476V90.5h6.31v-6.31h5.7387V90.5h6.1829v-6.31h5.7451V90.5h6.31v-6.31A5.4282,5.4282,0,0,0,84.19,79.1429H90.5v-6.31H84.19V67.1548H90.5v-6.31H84.19V55.1667H90.5v-6.31H84.19A5.4282,5.4282,0,0,0,79.1429,43.81V37.5Zm4.0521,40.381H51.1146a.9956.9956,0,0,1-.9956-.9956V51.1146a.9956.9956,0,0,1,.9956-.9956H76.8854a.9956.9956,0,0,1,.9956.9956V76.8855A.9956.9956,0,0,1,76.8854,77.881Z" fill="#fff"/></svg>