<svg id="Layer_1" data-name="Layer 1" xmlns="http://www.w3.org/2000/svg" width="128" height="128" viewBox="0 0 128 128">
  <title>Cloud Vision API</title>
  <g>
    <path d="M126.47,58.12l-26.3-45.74A11.56,11.56,0,0,0,90.31,6.5H37.7a11.55,11.55,0,0,0-9.86,5.88L1.53,58a11.48,11.48,0,0,0,0,11.44l26.3,46a11.77,11.77,0,0,0,9.86,6.09H90.3a11.73,11.73,0,0,0,9.87-6.06l26.3-45.74A11.73,11.73,0,0,0,126.47,58.12Z" style="fill: #4285f4"/>
    <path d="M94,64,64,46.33,34,64l57.41,57.41a11.92,11.92,0,0,0,8.75-6L116.7,86.7Z" style="opacity: 0.070000000298023;isolation: isolate"/>
    <path d="M64,41.5,34,64,64,86.5,94,64ZM45.25,64,64,50.88,82.75,64,64,77.13Z" style="fill: #fff"/>
    <circle cx="64.02" cy="64" r="5.62" style="fill: #fff"/>
  </g>
</svg>
