<svg xmlns="http://www.w3.org/2000/svg" width="128" height="128" viewBox="0 0 128 128"><title>Cloud Text-to-Speech</title><path d="M126.4738,58.12,100.1694,12.3782A11.5551,11.5551,0,0,0,90.3056,6.5H37.6969a11.5486,11.5486,0,0,0-9.865,5.8757L1.5275,58.0261a11.4753,11.4753,0,0,0-.0023,11.4366L27.83,115.4133A11.7726,11.7726,0,0,0,37.6938,121.5H90.3021a11.7264,11.7264,0,0,0,9.8661-6.06l26.3031-45.7447A11.728,11.728,0,0,0,126.4738,58.12Z" fill="#4285f4"/><path d="M87.3131,38.9315l-9.0366,4.2259-.154,13.5736-7.0473-7.0473-9.7737,5.2325-7.1951-7.1952L32.5429,53.1333,42.9547,63.5451,32.5,66.6638,42.6946,76.8582,32.5,80.1943,73.8059,121.5H90.3021a11.7263,11.7263,0,0,0,9.8661-6.06l23.2383-40.4146Z" opacity="0.07"/><rect x="32.5429" y="47.7211" width="21.5635" height="5.4122" fill="#fff"/><rect x="32.5003" y="74.7821" width="29.7671" height="5.4122" fill="#fff"/><path d="M76.1415,90.8111A6.78,6.78,0,0,1,67.68,84.2535V54.5075a1.3531,1.3531,0,1,0-2.7061,0V66.6638H32.5V61.2516h27.061V54.8565A7.0226,7.0226,0,0,1,64.65,47.9249a6.79,6.79,0,0,1,8.4413,6.6037V84.2535a1.3531,1.3531,0,1,0,2.7061,0v-40.17a6.9927,6.9927,0,0,1,5.0686-6.8943,6.78,6.78,0,0,1,8.4619,6.5576V73.4291a1.3531,1.3531,0,0,0,2.7061,0V63.9577h5.4122v9.1347a6.9927,6.9927,0,0,1-5.0686,6.8943,6.78,6.78,0,0,1-8.4619-6.5576V43.7465a1.3531,1.3531,0,1,0-2.7061,0v40.17A6.9927,6.9927,0,0,1,76.1415,90.8111Z" fill="#fff"/></svg>