<svg xmlns="http://www.w3.org/2000/svg" width="73.74" height="43.75" viewBox="0 0 73.74 43.75">
  <title>Asset 1lockup</title>
  <g id="Layer_2" data-name="Layer 2">
    <g id="Layer_1-2" data-name="Layer 1">
      <polygon points="0 38.32 1.85 38.32 1.85 35.07 5.85 35.07 5.85 33.39 1.85 33.39 1.85 31.6 6.39 31.6 6.39 29.92 0 29.92 0 38.32" style="fill: #0069a6"/>
      <path d="M15.57,36.76a2.53,2.53,0,0,1-1-.21,2.45,2.45,0,0,1-.8-.57,2.61,2.61,0,0,1-.53-.84,2.82,2.82,0,0,1-.19-1v0a2.82,2.82,0,0,1,.18-1,2.54,2.54,0,0,1,.52-.83,2.41,2.41,0,0,1,.8-.56,2.62,2.62,0,0,1,2,0,2.45,2.45,0,0,1,.8.57,2.61,2.61,0,0,1,.53.84,2.83,2.83,0,0,1,.19,1v0a2.83,2.83,0,0,1-.18,1,2.55,2.55,0,0,1-.52.83,2.4,2.4,0,0,1-.8.56,2.57,2.57,0,0,1-1,.21m0,1.7A4.81,4.81,0,0,0,17,38.24a4.44,4.44,0,0,0,1.23-.62,4.25,4.25,0,0,0,1.56-2.13A4.42,4.42,0,0,0,20,34.12v0a4.4,4.4,0,0,0-.21-1.37,4.21,4.21,0,0,0-1.55-2.12A4.37,4.37,0,0,0,17,30a4.92,4.92,0,0,0-2.92,0,4.37,4.37,0,0,0-1.24.62,4.28,4.28,0,0,0-1.56,2.13,4.41,4.41,0,0,0-.22,1.37v0a4.45,4.45,0,0,0,.21,1.37,4.26,4.26,0,0,0,.61,1.19,4.2,4.2,0,0,0,.95.94,4.38,4.38,0,0,0,1.23.61A4.83,4.83,0,0,0,15.54,38.46Z" style="fill: #0069a6"/>
      <path d="M27.11,34V31.59h1.84a2,2,0,0,1,.78.13,1.06,1.06,0,0,1,.5.4,1.19,1.19,0,0,1,.18.66v0a1.15,1.15,0,0,1-.17.62,1.12,1.12,0,0,1-.48.42A1.84,1.84,0,0,1,29,34Zm-1.85,4.32h1.85V35.63h1.45l1.8,2.69h2.16l-2.05-3a3,3,0,0,0,.94-.55,2.42,2.42,0,0,0,.63-.86,2.94,2.94,0,0,0,.23-1.19v0a3,3,0,0,0-.18-1.08,2.33,2.33,0,0,0-.54-.84,2.7,2.7,0,0,0-1-.63,4.27,4.27,0,0,0-1.42-.22H25.26Z" style="fill: #0069a6"/>
      <path d="M40.52,38.44a4.28,4.28,0,0,0,1.25-.17,2.84,2.84,0,0,0,1-.5,2.26,2.26,0,0,0,.64-.82,2.67,2.67,0,0,0,.23-1.11v0a2.39,2.39,0,0,0-.18-.95,1.92,1.92,0,0,0-.52-.69,3.22,3.22,0,0,0-.84-.5,7.88,7.88,0,0,0-1.14-.38L40,33a2.92,2.92,0,0,1-.55-.23.76.76,0,0,1-.28-.27.7.7,0,0,1-.08-.35v0a.62.62,0,0,1,.12-.37.84.84,0,0,1,.36-.26,1.64,1.64,0,0,1,.59-.1,3,3,0,0,1,1.08.22,5.39,5.39,0,0,1,1.11.61l1-1.39a4.74,4.74,0,0,0-1.42-.79,5.13,5.13,0,0,0-1.7-.28A3.77,3.77,0,0,0,39,30a2.75,2.75,0,0,0-.93.51,2.31,2.31,0,0,0-.61.8,2.46,2.46,0,0,0-.22,1v0a2.52,2.52,0,0,0,.2,1,1.85,1.85,0,0,0,.56.7,3.35,3.35,0,0,0,.88.47,10.52,10.52,0,0,0,1.15.35q.52.14.86.25a2.32,2.32,0,0,1,.52.24.72.72,0,0,1,.25.26.68.68,0,0,1,.07.31v0a.66.66,0,0,1-.32.58,1.62,1.62,0,0,1-.89.21,3.19,3.19,0,0,1-.91-.13,3.66,3.66,0,0,1-.83-.35,5.46,5.46,0,0,1-.77-.54L37,37.09a5.15,5.15,0,0,0,1.09.75,5.32,5.32,0,0,0,1.21.45,5.52,5.52,0,0,0,1.27.15" style="fill: #0069a6"/>
      <polygon points="48.8 38.32 55.2 38.32 55.2 36.67 50.64 36.67 50.64 34.91 54.6 34.91 54.6 33.27 50.64 33.27 50.64 31.57 55.14 31.57 55.14 29.92 48.8 29.92 48.8 38.32" style="fill: #0069a6"/>
      <polygon points="62.39 38.32 64.24 38.32 64.24 31.63 66.8 31.63 66.8 29.92 59.84 29.92 59.84 31.63 62.39 31.63 62.39 38.32" style="fill: #0069a6"/>
      <rect x="71.89" y="29.92" width="1.85" height="8.4" style="fill: #0069a6"/>
      <path d="M1.53,42.65a1,1,0,0,1-.4-.08,1,1,0,0,1-.31-.22A1,1,0,0,1,.61,42a1.11,1.11,0,0,1-.07-.4h0a1.11,1.11,0,0,1,.07-.4,1,1,0,0,1,.2-.33.93.93,0,0,1,.31-.22,1,1,0,0,1,.8,0,.94.94,0,0,1,.31.22,1,1,0,0,1,.2.33,1.11,1.11,0,0,1,.07.4h0a1.11,1.11,0,0,1-.07.4,1,1,0,0,1-.2.33.93.93,0,0,1-.31.22,1,1,0,0,1-.4.08m0,.47A1.62,1.62,0,0,0,2,43a1.49,1.49,0,0,0,.42-.22,1.48,1.48,0,0,0,.32-.33A1.49,1.49,0,0,0,3,42.09,1.57,1.57,0,0,0,3,41.62H3A1.54,1.54,0,0,0,3,41.14a1.46,1.46,0,0,0-.95-1,1.61,1.61,0,0,0-.5-.08,1.61,1.61,0,0,0-.5.08,1.48,1.48,0,0,0-1,1,1.56,1.56,0,0,0-.07.47H0a1.55,1.55,0,0,0,.07.47,1.5,1.5,0,0,0,.2.41A1.46,1.46,0,0,0,1,43,1.63,1.63,0,0,0,1.52,43.12Z" style="fill: #ffc60b"/>
      <path d="M4.74,42.68a.62.62,0,0,1-.45-.19.67.67,0,0,1-.14-.22A.8.8,0,0,1,4.1,42h0a.79.79,0,0,1,.05-.29.67.67,0,0,1,.14-.22.61.61,0,0,1,.2-.14.6.6,0,0,1,.24-.05.6.6,0,0,1,.24,0,.61.61,0,0,1,.2.14.69.69,0,0,1,.14.22.84.84,0,0,1,0,.29h0a.87.87,0,0,1,0,.29.66.66,0,0,1-.14.22.59.59,0,0,1-.2.14.61.61,0,0,1-.24,0M3.61,43.74h.5v-1a1.11,1.11,0,0,0,.18.19.87.87,0,0,0,.24.14.92.92,0,0,0,.32.06,1,1,0,0,0,.81-.42,1.11,1.11,0,0,0,.15-.32,1.38,1.38,0,0,0,.06-.4h0a1.38,1.38,0,0,0-.06-.4,1.12,1.12,0,0,0-.15-.32A1,1,0,0,0,5.44,41a1,1,0,0,0-.59-.19.86.86,0,0,0-.31.06A.83.83,0,0,0,4.3,41a1.13,1.13,0,0,0-.19.21v-.37h-.5Z" style="fill: #ffc60b"/>
      <path d="M6.78,41.82a.81.81,0,0,1,.1-.3.56.56,0,0,1,.2-.2.55.55,0,0,1,.56,0,.54.54,0,0,1,.19.21.79.79,0,0,1,.09.29Zm.63,1.3a1.25,1.25,0,0,0,.37-.05,1.06,1.06,0,0,0,.3-.14,1.19,1.19,0,0,0,.24-.22L8,42.45a1.11,1.11,0,0,1-.18.14.75.75,0,0,1-.19.09.82.82,0,0,1-.22,0,.67.67,0,0,1-.3-.07.57.57,0,0,1-.22-.19.71.71,0,0,1-.12-.3H8.39v-.07s0,0,0-.07a1.55,1.55,0,0,0,0-.37,1.24,1.24,0,0,0-.13-.32A1,1,0,0,0,8,41.06a.91.91,0,0,0-.29-.17,1.11,1.11,0,0,0-.38-.06,1.05,1.05,0,0,0-.43.09,1,1,0,0,0-.34.25,1.12,1.12,0,0,0-.22.36,1.25,1.25,0,0,0-.08.44h0a1.23,1.23,0,0,0,.09.46A1.06,1.06,0,0,0,7,43,1.2,1.2,0,0,0,7.4,43.12Z" style="fill: #ffc60b"/>
      <path d="M8.91,43.07h.5V41.83a.64.64,0,0,1,.06-.29.45.45,0,0,1,.17-.19.51.51,0,0,1,.26-.07.44.44,0,0,1,.35.14.59.59,0,0,1,.12.4v1.25h.5v-1.4a1,1,0,0,0-.09-.45.67.67,0,0,0-.27-.29.82.82,0,0,0-.42-.11.79.79,0,0,0-.3.05.75.75,0,0,0-.22.14,1.06,1.06,0,0,0-.17.19v-.34h-.5Z" style="fill: #ffc60b"/>
      <rect x="11.41" y="41.55" width="1.23" height="0.5" style="fill: #ffc60b"/>
      <path d="M13.94,43.11a1.15,1.15,0,0,0,.32,0,.76.76,0,0,0,.26-.13.6.6,0,0,0,.17-.22.71.71,0,0,0,.06-.3h0a.51.51,0,0,0-.06-.25.56.56,0,0,0-.16-.18,1.05,1.05,0,0,0-.22-.12l-.24-.09-.19-.06-.16-.07-.11-.08a.16.16,0,0,1,0-.1h0a.19.19,0,0,1,.08-.16.38.38,0,0,1,.23-.06.94.94,0,0,1,.3.06,1.66,1.66,0,0,1,.32.15l.2-.36a1.51,1.51,0,0,0-.25-.13l-.28-.09-.28,0a1,1,0,0,0-.31,0,.75.75,0,0,0-.25.13.61.61,0,0,0-.17.21.64.64,0,0,0-.06.28h0a.52.52,0,0,0,.22.45,1,1,0,0,0,.22.12l.24.08.19.06.16.06a.34.34,0,0,1,.11.08.16.16,0,0,1,0,.11h0a.2.2,0,0,1-.09.17.44.44,0,0,1-.25.06,1,1,0,0,1-.36-.07,1.45,1.45,0,0,1-.36-.2l-.22.34a1.54,1.54,0,0,0,.29.18,1.57,1.57,0,0,0,.32.11,1.41,1.41,0,0,0,.32,0" style="fill: #ffc60b"/>
      <path d="M16.32,42.69a.65.65,0,0,1-.48-.21.7.7,0,0,1-.14-.23.75.75,0,0,1-.05-.27h0a.79.79,0,0,1,0-.27.67.67,0,0,1,.13-.22.61.61,0,0,1,.21-.15.7.7,0,0,1,.55,0,.64.64,0,0,1,.21.15.69.69,0,0,1,.14.22A.75.75,0,0,1,17,42h0a.78.78,0,0,1,0,.27.69.69,0,0,1-.13.22.62.62,0,0,1-.21.15.68.68,0,0,1-.28.06m0,.44a1.23,1.23,0,0,0,.47-.09,1.15,1.15,0,0,0,.37-.25,1.13,1.13,0,0,0,.33-.81h0a1.13,1.13,0,0,0-.09-.44,1.11,1.11,0,0,0-.24-.36,1.15,1.15,0,0,0-.37-.24,1.23,1.23,0,0,0-.47-.09,1.22,1.22,0,0,0-.47.09,1.14,1.14,0,0,0-.62.61,1.15,1.15,0,0,0-.09.44h0a1.13,1.13,0,0,0,.09.44,1.12,1.12,0,0,0,.24.36,1.14,1.14,0,0,0,.37.24A1.23,1.23,0,0,0,16.31,43.12Z" style="fill: #ffc60b"/>
      <path d="M18.76,43.12a.79.79,0,0,0,.3-.05.75.75,0,0,0,.22-.14,1.06,1.06,0,0,0,.17-.19v.34H20v-2.2h-.5v1.24a.63.63,0,0,1-.06.29.45.45,0,0,1-.17.19.51.51,0,0,1-.26.07.44.44,0,0,1-.35-.14.59.59,0,0,1-.12-.4V40.88H18v1.4a1,1,0,0,0,.09.45.67.67,0,0,0,.27.29.82.82,0,0,0,.42.11" style="fill: #ffc60b"/>
      <path d="M20.58,43.07h.5v-.84a1.12,1.12,0,0,1,.1-.49.66.66,0,0,1,.26-.29.78.78,0,0,1,.39-.1h0v-.53a.77.77,0,0,0-.34.06.73.73,0,0,0-.26.19,1.05,1.05,0,0,0-.18.29v-.5h-.5Z" style="fill: #ffc60b"/>
      <path d="M23.24,43.12a1.25,1.25,0,0,0,.38-.05,1,1,0,0,0,.29-.14,1.45,1.45,0,0,0,.23-.21l-.3-.3-.17.14a.75.75,0,0,1-.19.1.67.67,0,0,1-.22,0,.66.66,0,0,1-.27-.06.62.62,0,0,1-.21-.15.69.69,0,0,1-.14-.23.8.8,0,0,1,0-.28h0a.78.78,0,0,1,0-.27.69.69,0,0,1,.13-.22.61.61,0,0,1,.2-.15.59.59,0,0,1,.25-.06.67.67,0,0,1,.23,0,.68.68,0,0,1,.18.1l.16.14.31-.34a1.24,1.24,0,0,0-.23-.2,1,1,0,0,0-.28-.13,1.32,1.32,0,0,0-.37,0,1.16,1.16,0,0,0-.46.09,1.11,1.11,0,0,0-.36.25,1.14,1.14,0,0,0-.24.37,1.17,1.17,0,0,0-.09.44h0a1.16,1.16,0,0,0,.09.44,1.12,1.12,0,0,0,.24.36,1.11,1.11,0,0,0,.36.24,1.17,1.17,0,0,0,.45.09" style="fill: #ffc60b"/>
      <path d="M24.92,41.82a.81.81,0,0,1,.1-.3.56.56,0,0,1,.2-.2.55.55,0,0,1,.56,0,.54.54,0,0,1,.19.21.8.8,0,0,1,.09.29Zm.63,1.3a1.25,1.25,0,0,0,.37-.05,1.05,1.05,0,0,0,.3-.14,1.19,1.19,0,0,0,.24-.22l-.3-.26a1.11,1.11,0,0,1-.18.14.75.75,0,0,1-.19.09.82.82,0,0,1-.22,0,.67.67,0,0,1-.3-.07.57.57,0,0,1-.22-.19.71.71,0,0,1-.12-.3h1.61v-.07s0,0,0-.07a1.55,1.55,0,0,0,0-.37,1.26,1.26,0,0,0-.13-.32,1,1,0,0,0-.21-.26.92.92,0,0,0-.29-.17,1.11,1.11,0,0,0-.38-.06,1.05,1.05,0,0,0-.43.09,1,1,0,0,0-.34.25,1.12,1.12,0,0,0-.22.36,1.24,1.24,0,0,0-.08.44h0a1.22,1.22,0,0,0,.09.46,1.06,1.06,0,0,0,.6.59A1.21,1.21,0,0,0,25.55,43.12Z" style="fill: #ffc60b"/>
      <path d="M29,43.11a1,1,0,0,0,.25,0,.83.83,0,0,0,.2-.08v-.41l-.15.06-.16,0a.24.24,0,0,1-.27-.27V41.31h.59v-.43h-.59v-.6h-.5v.6h-.28v.43h.28v1.16a.78.78,0,0,0,.08.38.47.47,0,0,0,.22.2.81.81,0,0,0,.33.06" style="fill: #ffc60b"/>
      <path d="M31,42.69a.65.65,0,0,1-.48-.21.7.7,0,0,1-.14-.23.75.75,0,0,1,0-.27h0a.78.78,0,0,1,0-.27.67.67,0,0,1,.13-.22.61.61,0,0,1,.21-.15.7.7,0,0,1,.55,0,.65.65,0,0,1,.21.15.7.7,0,0,1,.14.22.74.74,0,0,1,.05.27h0a.79.79,0,0,1,0,.27.7.7,0,0,1-.13.22.62.62,0,0,1-.21.15.68.68,0,0,1-.28.06m0,.44a1.23,1.23,0,0,0,.47-.09,1.15,1.15,0,0,0,.37-.25,1.13,1.13,0,0,0,.33-.81h0a1.13,1.13,0,0,0-.09-.44,1.12,1.12,0,0,0-.24-.36,1.16,1.16,0,0,0-.37-.24,1.23,1.23,0,0,0-.47-.09,1.22,1.22,0,0,0-.47.09,1.14,1.14,0,0,0-.62.61,1.15,1.15,0,0,0-.09.44h0a1.13,1.13,0,0,0,.09.44,1.11,1.11,0,0,0,.24.36,1.14,1.14,0,0,0,.37.24A1.24,1.24,0,0,0,31,43.12Z" style="fill: #ffc60b"/>
      <path d="M33.74,42.69a.65.65,0,0,1-.48-.21.7.7,0,0,1-.14-.23.75.75,0,0,1,0-.27h0a.78.78,0,0,1,0-.27.66.66,0,0,1,.13-.22.61.61,0,0,1,.21-.15.7.7,0,0,1,.55,0,.64.64,0,0,1,.21.15.7.7,0,0,1,.14.22.74.74,0,0,1,.05.27h0a.79.79,0,0,1,0,.27.7.7,0,0,1-.13.22.62.62,0,0,1-.21.15.68.68,0,0,1-.28.06m0,.44A1.24,1.24,0,0,0,34.2,43a1.15,1.15,0,0,0,.37-.25,1.12,1.12,0,0,0,.25-.36,1.13,1.13,0,0,0,.09-.44h0a1.14,1.14,0,0,0-.09-.44,1.12,1.12,0,0,0-.24-.36,1.16,1.16,0,0,0-.37-.24,1.23,1.23,0,0,0-.47-.09,1.22,1.22,0,0,0-.47.09,1.14,1.14,0,0,0-.62.61,1.15,1.15,0,0,0-.09.44h0a1.13,1.13,0,0,0,.09.44,1.11,1.11,0,0,0,.24.36,1.14,1.14,0,0,0,.37.24A1.23,1.23,0,0,0,33.73,43.12Z" style="fill: #ffc60b"/>
      <rect x="35.45" y="40.04" width="0.5" height="3.04" style="fill: #ffc60b"/>
      <path d="M37.36,43.11a1.15,1.15,0,0,0,.32,0,.77.77,0,0,0,.26-.13.61.61,0,0,0,.17-.22.71.71,0,0,0,.06-.3h0a.51.51,0,0,0-.06-.25A.56.56,0,0,0,38,42a1,1,0,0,0-.22-.12l-.24-.09-.19-.06-.16-.07L37,41.57a.16.16,0,0,1,0-.1h0a.19.19,0,0,1,.08-.16.38.38,0,0,1,.23-.06.94.94,0,0,1,.3.06,1.67,1.67,0,0,1,.32.15l.2-.36a1.51,1.51,0,0,0-.25-.13l-.28-.09-.28,0a1,1,0,0,0-.31,0,.75.75,0,0,0-.25.13.61.61,0,0,0-.17.21.64.64,0,0,0-.06.28h0a.56.56,0,0,0,.06.26.55.55,0,0,0,.16.18,1,1,0,0,0,.22.12l.24.08.19.06.16.06a.34.34,0,0,1,.11.08.16.16,0,0,1,0,.11h0a.2.2,0,0,1-.09.17.44.44,0,0,1-.25.06,1,1,0,0,1-.36-.07,1.46,1.46,0,0,1-.36-.2l-.22.34a1.54,1.54,0,0,0,.29.18,1.57,1.57,0,0,0,.32.11,1.42,1.42,0,0,0,.32,0" style="fill: #ffc60b"/>
      <path d="M40,43.07h.5V41.31h.57v-.42h-.58v-.12a.37.37,0,0,1,.07-.25.28.28,0,0,1,.22-.08H41l.14,0v-.42L41,40l-.23,0a.85.85,0,0,0-.29,0,.56.56,0,0,0-.21.13.57.57,0,0,0-.13.22,1,1,0,0,0,0,.32v.16h-.28v.42H40Z" style="fill: #ffc60b"/>
      <path d="M42.51,42.69a.65.65,0,0,1-.48-.21.7.7,0,0,1-.14-.23.75.75,0,0,1-.05-.27h0a.79.79,0,0,1,0-.27.67.67,0,0,1,.13-.22.61.61,0,0,1,.21-.15.67.67,0,0,1,.27-.06.67.67,0,0,1,.27.06.65.65,0,0,1,.21.15.7.7,0,0,1,.14.22.74.74,0,0,1,.05.27h0a.79.79,0,0,1,0,.27.7.7,0,0,1-.13.22.62.62,0,0,1-.21.15.68.68,0,0,1-.28.06m0,.44A1.23,1.23,0,0,0,43,43a1.15,1.15,0,0,0,.37-.25,1.13,1.13,0,0,0,.33-.81h0a1.13,1.13,0,0,0-.09-.44,1.11,1.11,0,0,0-.24-.36,1.15,1.15,0,0,0-.37-.24,1.23,1.23,0,0,0-.47-.09,1.22,1.22,0,0,0-.47.09,1.14,1.14,0,0,0-.62.61,1.15,1.15,0,0,0-.09.44h0a1.12,1.12,0,0,0,.09.44,1.11,1.11,0,0,0,.24.36A1.14,1.14,0,0,0,42,43,1.24,1.24,0,0,0,42.5,43.12Z" style="fill: #ffc60b"/>
      <path d="M44.19,43.07h.5v-.84a1.12,1.12,0,0,1,.1-.49.66.66,0,0,1,.26-.29.78.78,0,0,1,.39-.1h0v-.53a.76.76,0,0,0-.34.06.73.73,0,0,0-.26.19,1,1,0,0,0-.18.29v-.5h-.5Z" style="fill: #ffc60b"/>
      <path d="M48.6,43.12a1.83,1.83,0,0,0,.89-.23,1.94,1.94,0,0,0,.33-.23V41.45H48.58v.45h.74v.55a1.09,1.09,0,0,1-.32.16,1.26,1.26,0,0,1-.39.06,1,1,0,0,1-.41-.08.9.9,0,0,1-.31-.22,1,1,0,0,1-.2-.33,1.21,1.21,0,0,1-.07-.42h0a1.11,1.11,0,0,1,.07-.4,1,1,0,0,1,.2-.33,1,1,0,0,1,.3-.22.89.89,0,0,1,.37-.08,1.28,1.28,0,0,1,.33,0,1,1,0,0,1,.26.11,1.55,1.55,0,0,1,.23.17l.32-.39a1.81,1.81,0,0,0-.31-.22,1.43,1.43,0,0,0-.36-.13,2,2,0,0,0-.45,0,1.55,1.55,0,0,0-.49.08,1.43,1.43,0,0,0-.41.22,1.44,1.44,0,0,0-.32.33,1.49,1.49,0,0,0-.2.41,1.57,1.57,0,0,0-.07.47h0a1.69,1.69,0,0,0,.07.48,1.47,1.47,0,0,0,.2.41,1.38,1.38,0,0,0,.32.32,1.44,1.44,0,0,0,.42.21,1.71,1.71,0,0,0,.51.07" style="fill: #ffc60b"/>
      <path d="M51.84,43.12a1.68,1.68,0,0,0,.48-.06,1.38,1.38,0,0,0,.38-.18,1.93,1.93,0,0,0,.32-.27l-.33-.33a2,2,0,0,1-.25.2,1.06,1.06,0,0,1-.27.13,1,1,0,0,1-.32,0,.92.92,0,0,1-.69-.3A1,1,0,0,1,51,42a1.15,1.15,0,0,1-.07-.4h0a1.13,1.13,0,0,1,.07-.4,1,1,0,0,1,.2-.33.92.92,0,0,1,.3-.22.94.94,0,0,1,.39-.08,1,1,0,0,1,.31,0,1.1,1.1,0,0,1,.27.13,1.68,1.68,0,0,1,.24.19l.33-.38a1.77,1.77,0,0,0-.3-.24,1.38,1.38,0,0,0-.37-.16,1.79,1.79,0,0,0-.47-.06,1.58,1.58,0,0,0-.5.08,1.44,1.44,0,0,0-.73.54,1.47,1.47,0,0,0-.2.41,1.59,1.59,0,0,0-.07.47h0a1.58,1.58,0,0,0,.07.48,1.48,1.48,0,0,0,.2.41,1.44,1.44,0,0,0,.32.32,1.47,1.47,0,0,0,.41.21,1.53,1.53,0,0,0,.48.08" style="fill: #ffc60b"/>
      <path d="M54.07,41.67v-1h.6a.85.85,0,0,1,.33.06.47.47,0,0,1,.22.17.51.51,0,0,1,.08.29h0a.49.49,0,0,1-.08.27.51.51,0,0,1-.22.18.8.8,0,0,1-.34.07Zm-.51,1.4h.51v-.94h.58a1.55,1.55,0,0,0,.45-.06,1.11,1.11,0,0,0,.37-.19.88.88,0,0,0,.25-.31,1,1,0,0,0,.09-.43h0a1,1,0,0,0-.14-.51.9.9,0,0,0-.38-.34,1.35,1.35,0,0,0-.59-.12H53.55Z" style="fill: #ffc60b"/>
      <path d="M58.28,43.11a1.14,1.14,0,0,0,.32,0,.76.76,0,0,0,.26-.13.6.6,0,0,0,.17-.22.71.71,0,0,0,.06-.3h0a.51.51,0,0,0-.06-.25.56.56,0,0,0-.16-.18,1,1,0,0,0-.22-.12l-.24-.09-.19-.06-.16-.07L58,41.57a.16.16,0,0,1,0-.1h0A.19.19,0,0,1,58,41.3a.38.38,0,0,1,.23-.06.94.94,0,0,1,.3.06,1.68,1.68,0,0,1,.32.15l.2-.36a1.51,1.51,0,0,0-.25-.13l-.28-.09-.28,0a1,1,0,0,0-.31,0,.75.75,0,0,0-.25.13.61.61,0,0,0-.17.21.64.64,0,0,0-.06.28h0a.56.56,0,0,0,.06.26.55.55,0,0,0,.16.18,1,1,0,0,0,.22.12l.24.08.19.06.16.06a.34.34,0,0,1,.11.08.17.17,0,0,1,0,.11h0a.2.2,0,0,1-.09.17.44.44,0,0,1-.25.06,1,1,0,0,1-.36-.07,1.45,1.45,0,0,1-.36-.2l-.22.34a1.54,1.54,0,0,0,.29.18,1.56,1.56,0,0,0,.32.11,1.41,1.41,0,0,0,.32,0" style="fill: #ffc60b"/>
      <path d="M60,41.82a.81.81,0,0,1,.1-.3.56.56,0,0,1,.2-.2.55.55,0,0,1,.56,0,.54.54,0,0,1,.19.21.79.79,0,0,1,.09.29Zm.63,1.3a1.25,1.25,0,0,0,.37-.05,1.06,1.06,0,0,0,.3-.14,1.19,1.19,0,0,0,.24-.22l-.3-.26a1.11,1.11,0,0,1-.18.14.75.75,0,0,1-.19.09.82.82,0,0,1-.22,0,.67.67,0,0,1-.3-.07.57.57,0,0,1-.22-.19.71.71,0,0,1-.12-.3H61.6v-.07s0,0,0-.07a1.55,1.55,0,0,0,0-.37,1.24,1.24,0,0,0-.13-.32,1,1,0,0,0-.21-.26.91.91,0,0,0-.29-.17,1.11,1.11,0,0,0-.38-.06,1.05,1.05,0,0,0-.43.09,1,1,0,0,0-.34.25,1.12,1.12,0,0,0-.22.36,1.25,1.25,0,0,0-.08.44h0a1.23,1.23,0,0,0,.09.46,1.06,1.06,0,0,0,.6.59A1.2,1.2,0,0,0,60.61,43.12Z" style="fill: #ffc60b"/>
      <path d="M63.14,43.12a1.25,1.25,0,0,0,.38-.05,1,1,0,0,0,.29-.14,1.46,1.46,0,0,0,.23-.21l-.3-.3-.16.14a.75.75,0,0,1-.19.1.67.67,0,0,1-.22,0,.66.66,0,0,1-.27-.06.63.63,0,0,1-.21-.15.7.7,0,0,1-.14-.23.8.8,0,0,1,0-.28h0a.78.78,0,0,1,0-.27.69.69,0,0,1,.13-.22.61.61,0,0,1,.2-.15.59.59,0,0,1,.25-.06.67.67,0,0,1,.23,0,.68.68,0,0,1,.18.1l.16.14.31-.34a1.25,1.25,0,0,0-.23-.2,1,1,0,0,0-.28-.13,1.32,1.32,0,0,0-.37,0,1.16,1.16,0,0,0-.46.09,1.11,1.11,0,0,0-.36.25,1.14,1.14,0,0,0-.24.37A1.17,1.17,0,0,0,62,42h0a1.16,1.16,0,0,0,.09.44,1.11,1.11,0,0,0,.6.61,1.18,1.18,0,0,0,.45.09" style="fill: #ffc60b"/>
      <path d="M65.25,43.12a.79.79,0,0,0,.3-.05.75.75,0,0,0,.22-.14,1.06,1.06,0,0,0,.17-.19v.34h.5v-2.2h-.5v1.24a.63.63,0,0,1-.06.29.45.45,0,0,1-.17.19.51.51,0,0,1-.26.07.44.44,0,0,1-.35-.14.59.59,0,0,1-.12-.4V40.88h-.5v1.4a1,1,0,0,0,.09.45.67.67,0,0,0,.27.29.82.82,0,0,0,.42.11" style="fill: #ffc60b"/>
      <path d="M67.08,43.07h.5v-.84a1.12,1.12,0,0,1,.1-.49.66.66,0,0,1,.26-.29.78.78,0,0,1,.39-.1h0v-.53a.77.77,0,0,0-.34.06.73.73,0,0,0-.26.19,1,1,0,0,0-.18.29v-.5h-.5Z" style="fill: #ffc60b"/>
      <path d="M68.82,43.07h.5v-2.2h-.5Zm0-2.53h.54v-.48H68.8Z" style="fill: #ffc60b"/>
      <path d="M70.72,43.11a1,1,0,0,0,.25,0,.83.83,0,0,0,.2-.08v-.41l-.15.06-.16,0a.24.24,0,0,1-.27-.27V41.31h.59v-.43h-.59v-.6h-.5v.6h-.28v.43h.28v1.16a.78.78,0,0,0,.08.38.47.47,0,0,0,.22.2.81.81,0,0,0,.33.06" style="fill: #ffc60b"/>
      <path d="M72.14,43.75a.71.71,0,0,0,.31-.06.61.61,0,0,0,.23-.2,1.55,1.55,0,0,0,.19-.36l.87-2.26h-.52l-.57,1.63L72,40.88h-.54l.92,2.2a.66.66,0,0,1-.09.15.27.27,0,0,1-.1.08l-.13,0-.15,0-.14-.06-.17.37.16.07.17,0,.19,0" style="fill: #ffc60b"/>
      <path d="M47.94,8.91a18.26,18.26,0,0,0-.12-5C41-1.3,32.41-1.34,25.87,4a20,20,0,0,0,0,4.94A14.94,14.94,0,0,1,36.87,4.42,14.93,14.93,0,0,1,47.94,8.91" style="fill: #ffc60b;fill-rule: evenodd"/>
      <path d="M46.25,14.53a16.49,16.49,0,0,0,1.28-3.41A13.6,13.6,0,0,0,36.87,6.35,13.61,13.61,0,0,0,26.22,11.1c1.17,5.63,5.32,9.82,10.63,11.86a20.76,20.76,0,0,0,2.29-1.12c-5.3-2.12-9-6.57-9.5-9.42a9.27,9.27,0,0,1,7.25-2.77,12,12,0,0,1,9.38,4.87" style="fill: #0069a6;fill-rule: evenodd"/>
    </g>
  </g>
</svg>
