<svg id="Layer_1" data-name="Layer 1" xmlns="http://www.w3.org/2000/svg" width="128" height="128" viewBox="0 0 128 128">
  <title>Container Registry</title>
  <g>
    <path d="M126.47,58.12l-26.3-45.74A11.56,11.56,0,0,0,90.31,6.5H37.7a11.55,11.55,0,0,0-9.86,5.88L1.53,58a11.48,11.48,0,0,0,0,11.44l26.3,46a11.77,11.77,0,0,0,9.86,6.09H90.3a11.73,11.73,0,0,0,9.87-6.06l26.3-45.74A11.73,11.73,0,0,0,126.47,58.12Z" style="fill: #4285f4"/>
    <path d="M96,45.48l-12.3-3-1.9,1.95,9.47,9.47.1,13L71.89,47.36,56,47.33l-10-10L35.5,46.25,31.91,82.47l39,39H90.3a11.73,11.73,0,0,0,9.87-6.06l24-41.8Z" style="opacity: 0.070000000298023;isolation: isolate"/>
    <g id="art">
      <g>
        <polygon points="56 56.63 64 61.25 72 56.63 72 47.38 64 42.75 56 47.38 56 56.63" style="fill: #fff"/>
        <polygon points="67 75.5 75 80.13 83 75.5 83 66.25 75 61.63 67 66.25 67 75.5" style="fill: #fff"/>
        <polygon points="45 75.75 53 80.38 61 75.75 61 66.5 53 61.88 45 66.5 45 75.75" style="fill: #fff"/>
      </g>
      <polygon points="46 44.44 38 49.06 38 78.94 46 83.56 46 90.65 32 82.56 32 45.44 46 37.35 46 44.44" style="fill: #fff"/>
      <polygon points="82 44.44 90 49.06 90 78.94 82 83.56 82 90.65 96 82.56 96 45.44 82 37.35 82 44.44" style="fill: #fff"/>
    </g>
  </g>
</svg>
