<svg id="Layer_1" data-name="Layer 1" xmlns="http://www.w3.org/2000/svg" width="16" height="16" viewBox="0 0 16 16">
  <g id="art">
    <g>
      <g>
        <circle cx="12.86" cy="8.01" r="0.91"/>
        <circle cx="3.14" cy="8.01" r="0.91"/>
      </g>
      <g>
        <circle cx="8" cy="6.65" r="0.91"/>
        <circle cx="8" cy="9.37" r="0.91"/>
      </g>
      <polygon points="9.37 2.39 12.15 0.78 10.8 0 10.77 0 8 1.6 8 1.6 8 1.6 5.23 0 5.2 0 3.85 0.78 6.63 2.39 2.43 4.8 2.43 6.5 3.87 6.5 3.87 5.59 7.31 3.57 7.31 5.05 8.69 5.05 8.69 3.57 12.13 5.59 12.13 6.5 13.57 6.5 13.57 4.8 9.37 2.39"/>
      <polygon points="12.13 10.41 8.69 12.42 8.69 10.96 7.31 10.96 7.31 12.42 3.87 10.41 3.87 9.5 2.43 9.5 2.43 11.2 6.64 13.61 3.85 15.22 5.2 16 5.23 16 8 14.4 10.77 16 10.8 16 12.15 15.22 9.36 13.61 13.57 11.2 13.57 9.5 12.13 9.5 12.13 10.41"/>
    </g>
  </g>
</svg>
