<svg id="Layer_1" data-name="Layer 1" xmlns="http://www.w3.org/2000/svg" width="16" height="16" viewBox="0 0 16 16">
  <g>
    <path d="M9.84,5.77H6.16a0.39,0.39,0,0,0-.39.39V9.84a0.39,0.39,0,0,0,.39.39H9.83a0.39,0.39,0,0,0,.39-0.39V6.16a0.39,0.39,0,0,0-.39-0.39"/>
    <path d="M15.65,5.48A0.35,0.35,0,0,0,16,5.13V4.56a0.35,0.35,0,0,0-.35-0.35H13.86V2.54a0.39,0.39,0,0,0-.39-0.39H11.8V0.35A0.35,0.35,0,0,0,11.45,0H10.87a0.35,0.35,0,0,0-.35.35V2.14H8.63V0.35A0.35,0.35,0,0,0,8.29,0H7.71a0.35,0.35,0,0,0-.35.35V2.14H5.48V0.35A0.35,0.35,0,0,0,5.13,0H4.55A0.35,0.35,0,0,0,4.2.35V2.14H2.53a0.39,0.39,0,0,0-.39.39V4.2H0.35A0.35,0.35,0,0,0,0,4.55V5.13a0.35,0.35,0,0,0,.35.35H2.14V7.36H0.35A0.35,0.35,0,0,0,0,7.71V8.29a0.35,0.35,0,0,0,.35.35H2.14v1.89H0.35a0.35,0.35,0,0,0-.35.35v0.57a0.35,0.35,0,0,0,.35.35H2.14v1.67a0.39,0.39,0,0,0,.39.39H4.2v1.79a0.35,0.35,0,0,0,.35.35H5.13a0.35,0.35,0,0,0,.35-0.35V13.86H7.36v1.79a0.35,0.35,0,0,0,.35.35H8.29a0.35,0.35,0,0,0,.35-0.35V13.86h1.89v1.79a0.35,0.35,0,0,0,.35.35h0.57a0.35,0.35,0,0,0,.35-0.35V13.86h1.68a0.39,0.39,0,0,0,.39-0.39V11.8h1.79A0.35,0.35,0,0,0,16,11.45V10.88a0.35,0.35,0,0,0-.35-0.35H13.86V8.64h1.79A0.35,0.35,0,0,0,16,8.29V7.71a0.35,0.35,0,0,0-.35-0.35H13.86V5.48h1.79Zm-3.11,7.07H3.45V3.46h9.09v9.09Z"/>
  </g>
</svg>
