<svg id="Layer_1" data-name="Layer 1" xmlns="http://www.w3.org/2000/svg" width="24" height="24" viewBox="0 0 24 24">
  <title>modifiers_high-memory-machine</title>
  <g>
    <polygon points="19 11 12 4 5 11 19 11"/>
    <g>
      <path d="M20.5,13h-1a1.44,1.44,0,0,0-.75.22A1.44,1.44,0,0,0,18,13H17a1.54,1.54,0,0,0-1.5,1.5V19H17V14.5h1V19h1.5V14.5h1V19H22V14.5A1.54,1.54,0,0,0,20.5,13Z"/>
      <path d="M7,13H6a1.44,1.44,0,0,0-.75.22A1.44,1.44,0,0,0,4.5,13h-1A1.54,1.54,0,0,0,2,14.5V19H3.5V14.5h1V19H6V14.5H7V19H8.5V14.5A1.54,1.54,0,0,0,7,13Z"/>
      <polygon points="14.5 14.5 14.5 13 9.5 13 9.5 19 14.5 19 14.5 17.5 11 17.5 11 16.75 13.5 16.75 13.5 15.25 11 15.25 11 14.5 14.5 14.5"/>
    </g>
  </g>
</svg>
