<svg id="Layer_1" data-name="Layer 1" xmlns="http://www.w3.org/2000/svg" width="128" height="128" viewBox="0 0 128 128">
  <title>Cloud Bigtable</title>
  <g>
    <path d="M126.47,58.12l-26.3-45.74A11.56,11.56,0,0,0,90.31,6.5H37.7a11.55,11.55,0,0,0-9.86,5.88L1.53,58a11.48,11.48,0,0,0,0,11.44l26.3,46a11.77,11.77,0,0,0,9.86,6.09H90.3a11.73,11.73,0,0,0,9.87-6.06l26.3-45.74A11.73,11.73,0,0,0,126.47,58.12Z" style="fill: #4285f4"/>
    <path d="M90.92,40.75l-1.25,9.87L83,43.91l-23.4-9.59L72.63,47.4,56.79,39.92,30.37,52.34l7.17,7.16-.49,27.8,34.19,34.2H90.3a11.73,11.73,0,0,0,9.87-6.06l23.89-41.55Z" style="opacity: 0.070000000298023;isolation: isolate"/>
    <g id="art">
      <g>
        <g>
          <path d="M83.69,45.66l0,20.68a1.25,1.25,0,0,1-.63,1.08l-3.36,1.94V48a2.5,2.5,0,0,0-1.25-2.16L61.78,36.16A9,9,0,0,1,57.29,29L82.44,43.5A2.5,2.5,0,0,1,83.69,45.66Z" style="fill: #fff"/>
          <path d="M89.73,71.88,71.83,82.23a1.25,1.25,0,0,1-1.25,0L67.23,80.3,85.76,69.59A2.49,2.49,0,0,0,87,67.43V48.15a9,9,0,0,1,4-7.46v29A2.5,2.5,0,0,1,89.73,71.88Z" style="fill: #fff"/>
          <path d="M70,90.22,52.12,79.9a1.25,1.25,0,0,1-.63-1.09V74.95L70,85.64a2.5,2.5,0,0,0,2.49,0L89.22,76a9,9,0,0,1,8.44-.31L72.53,90.22A2.5,2.5,0,0,1,70,90.22Z" style="fill: #fff"/>
          <path d="M44.31,82.34l0-20.68a1.25,1.25,0,0,1,.62-1.08l3.36-1.94V80a2.5,2.5,0,0,0,1.25,2.16l16.69,9.64A9.05,9.05,0,0,1,70.71,99L45.56,84.5A2.49,2.49,0,0,1,44.31,82.34Z" style="fill: #fff"/>
          <path d="M38.27,56.12,56.17,45.77a1.25,1.25,0,0,1,1.25,0l3.36,1.94L42.24,58.41A2.49,2.49,0,0,0,41,60.57V79.85a9.06,9.06,0,0,1-4,7.47l0-29A2.5,2.5,0,0,1,38.27,56.12Z" style="fill: #fff"/>
          <path d="M58,37.78,75.87,48.1a1.24,1.24,0,0,1,.63,1.08v3.88L58,42.37a2.49,2.49,0,0,0-2.49,0L38.77,52a9,9,0,0,1-8.44.3L55.47,37.78A2.49,2.49,0,0,1,58,37.78Z" style="fill: #fff"/>
        </g>
        <g>
          <path d="M64,69.31a1.38,1.38,0,0,1-.69-.18L51.49,62.3v3L64,72.49l12.5-7.22v-3L64.68,69.12A1.37,1.37,0,0,1,64,69.31Z" style="fill: #fff"/>
          <path d="M64.68,75.27a1.39,1.39,0,0,1-1.37,0L51.49,68.44v2.2a1.32,1.32,0,0,0,.66,1.15l11.18,6.45a1.33,1.33,0,0,0,1.32,0l11.18-6.45a1.32,1.32,0,0,0,.66-1.15v-2.2Z" style="fill: #fff"/>
          <path d="M64,66.35l12.5-7.22v-1.4a1.32,1.32,0,0,0-.66-1.14L64.65,50.14a1.31,1.31,0,0,0-1.32,0L52.15,56.59a1.32,1.32,0,0,0-.66,1.14v1.4Z" style="fill: #fff"/>
        </g>
      </g>
    </g>
  </g>
</svg>
