<svg id="Layer_1" data-name="Layer 1" xmlns="http://www.w3.org/2000/svg" xmlns:xlink="http://www.w3.org/1999/xlink" width="232" height="30" viewBox="0 0 232 30">
  <defs>
    <style>
      .cls-1 {
        fill: #737373;
      }

      .cls-2 {
        fill: #ffcc40;
      }

      .cls-3 {
        fill: #da4437;
      }

      .cls-4 {
        fill: #4284f3;
      }

      .cls-5 {
        fill: #dfdfdf;
      }

      .cls-6, .cls-7 {
        fill: #fff;
      }

      .cls-7, .cls-9 {
        opacity: 0.2;
      }

      .cls-7 {
        isolation: isolate;
      }

      .cls-8 {
        fill: #1a237e;
        fill-opacity: 0.2;
      }

      .cls-10 {
        fill: #be360c;
      }

      .cls-11 {
        fill: #3e2723;
      }

      .cls-12 {
        fill: url(#radial-gradient);
      }
    </style>
    <radialGradient id="radial-gradient" cx="-116.26" cy="267.93" r="10.82" gradientTransform="matrix(2.67, 0, 0, -2.67, 315, 718.67)" gradientUnits="userSpaceOnUse">
      <stop offset="0" stop-color="#fff" stop-opacity="0.1"/>
      <stop offset="1" stop-color="#fff" stop-opacity="0"/>
    </radialGradient>
  </defs>
  <title>GCP_logo_solid</title>
  <g>
    <path class="cls-1" d="M36.65,14.61A8.31,8.31,0,0,1,45,6.42a7.81,7.81,0,0,1,5.62,2.26L49,10.25a5.71,5.71,0,0,0-4-1.6,5.88,5.88,0,0,0-5.88,6,5.88,5.88,0,0,0,5.88,6,5.48,5.48,0,0,0,4.14-1.64,4.67,4.67,0,0,0,1.22-2.82H45V13.87H52.5a7.29,7.29,0,0,1,.12,1.4,7.4,7.4,0,0,1-1.94,5.24A7.49,7.49,0,0,1,45,22.81,8.31,8.31,0,0,1,36.65,14.61Z"/>
    <path class="cls-1" d="M58.71,12.25A5.28,5.28,0,1,0,64,17.53,5.2,5.2,0,0,0,58.71,12.25Zm0,8.47a3.05,3.05,0,0,1-3-3.2,3,3,0,1,1,6,0A3.05,3.05,0,0,1,58.71,20.73Z"/>
    <path class="cls-1" d="M70.27,12.25a5.28,5.28,0,1,0,5.3,5.28A5.2,5.2,0,0,0,70.27,12.25Zm0,8.47a3.05,3.05,0,0,1-3-3.2,3,3,0,1,1,6,0A3.05,3.05,0,0,1,70.27,20.73Z"/>
    <path class="cls-1" d="M84.45,12.57v0.86H84.37a3.66,3.66,0,0,0-2.78-1.18,5.28,5.28,0,0,0,0,10.55,3.6,3.6,0,0,0,2.78-1.2h0.08v0.76c0,2-1.08,3.1-2.82,3.1A2.92,2.92,0,0,1,79,23.59l-2,.84a5,5,0,0,0,4.68,3.12c2.72,0,5-1.6,5-5.5V12.57h-2.2Zm-2.66,8.16a3,3,0,0,1-2.94-3.18,3.05,3.05,0,0,1,2.94-3.22,3,3,0,0,1,2.82,3.22A3,3,0,0,1,81.79,20.73Z"/>
    <rect class="cls-1" x="88.25" y="6.98" width="2.32" height="15.51"/>
    <path class="cls-1" d="M96.92,20.73a2.68,2.68,0,0,1-2.56-1.6l7.06-2.92-0.24-.6a4.9,4.9,0,0,0-4.52-3.36,5,5,0,0,0-5,5.28,5.16,5.16,0,0,0,5.24,5.28,5.25,5.25,0,0,0,4.4-2.34l-1.8-1.2A3,3,0,0,1,96.92,20.73Zm-0.18-6.44a2,2,0,0,1,2,1.12l-4.72,2A2.89,2.89,0,0,1,96.74,14.29Z"/>
    <path class="cls-1" d="M106,15.33a7.31,7.31,0,0,1,7.44-7.48,6.77,6.77,0,0,1,5.26,2.34l-1.28,1.24a4.84,4.84,0,0,0-4-1.82,5.45,5.45,0,0,0-5.56,5.72A5.45,5.45,0,0,0,113.4,21,5.79,5.79,0,0,0,117.8,19l1.28,1.28A7.48,7.48,0,0,1,106,15.33Z"/>
    <path class="cls-1" d="M120.52,22.49V8.17h1.84V22.49h-1.84Z"/>
    <path class="cls-1" d="M133.81,17.59a5,5,0,1,1-10.07,0A5,5,0,1,1,133.81,17.59Zm-1.84,0a3.21,3.21,0,1,0-6.4,0A3.21,3.21,0,1,0,132,17.59Z"/>
    <path class="cls-1" d="M142.12,22.49V21.13H142a3.74,3.74,0,0,1-3.1,1.68c-2.52,0-3.74-1.7-3.74-4.12v-6H137v5.7c0,2,1,2.74,2.42,2.74a2.83,2.83,0,0,0,2.58-3v-5.4h1.84v9.79h-1.76Z"/>
    <path class="cls-1" d="M145.36,17.59A5,5,0,0,1,150,12.37a3.92,3.92,0,0,1,3.34,1.68h0.08l-0.08-1.36V8.17h1.84V22.49h-1.76V21.13h-0.08A3.92,3.92,0,0,1,150,22.81,5,5,0,0,1,145.36,17.59Zm8.08,0a3.14,3.14,0,1,0-6.24,0A3.14,3.14,0,1,0,153.44,17.59Z"/>
    <path class="cls-1" d="M160.21,22.49V8.17h4.88a4.34,4.34,0,0,1,4.48,4.26,4.34,4.34,0,0,1-4.48,4.26h-3v5.8h-1.84Zm4.92-7.56a2.5,2.5,0,1,0,0-5H162v5h3.08Z"/>
    <path class="cls-1" d="M170.86,22.49V8.17h1.84V22.49h-1.84Z"/>
    <path class="cls-1" d="M174.28,19.53c0-2.22,2-3.42,4.3-3.42a5.63,5.63,0,0,1,2.66.6V16.43a2.59,2.59,0,0,0-4.9-1l-1.68-.72A4.42,4.42,0,0,1,183,16.57v5.92h-1.76V21.13h-0.08a3.69,3.69,0,0,1-3.22,1.68A3.35,3.35,0,0,1,174.28,19.53Zm7-1.26a3.85,3.85,0,0,0-2.34-.64c-1.94,0-2.7,1-2.7,1.94a1.82,1.82,0,0,0,2,1.56A3,3,0,0,0,181.24,18.27Z"/>
    <path class="cls-1" d="M185.65,19.51V14.37h-1.72V12.69h1.72v-3h1.84v3h2.4v1.68h-2.4v5c0,1.1.46,1.6,1.32,1.6a1.85,1.85,0,0,0,.84-0.16l0.64,1.58a3.57,3.57,0,0,1-1.48.26A2.84,2.84,0,0,1,185.65,19.51Z"/>
    <path class="cls-1" d="M197.61,8.35L197,9.93a1.8,1.8,0,0,0-.84-0.16,1.53,1.53,0,0,0-1.64,1.68v1.24H197v1.68h-2.56v8.12h-1.84V14.37h-1.84V12.69h1.84v-1.3a3.21,3.21,0,0,1,3.48-3.3A3.57,3.57,0,0,1,197.61,8.35Z"/>
    <path class="cls-1" d="M207.62,17.59a5,5,0,1,1-10.07,0A5,5,0,1,1,207.62,17.59Zm-1.84,0a3.21,3.21,0,1,0-6.4,0A3.21,3.21,0,1,0,205.78,17.59Z"/>
    <path class="cls-1" d="M209.1,22.49V12.69h1.76v1.6h0.08a3.23,3.23,0,0,1,2.84-1.84,3.35,3.35,0,0,1,1.38.24l-0.7,1.72a2.75,2.75,0,0,0-1-.14,2.66,2.66,0,0,0-2.54,2.86v5.36H209.1Z"/>
    <path class="cls-1" d="M216.15,12.69h1.76v1.36H218a3.78,3.78,0,0,1,3-1.68,3.1,3.1,0,0,1,3.1,1.88,4,4,0,0,1,3.42-1.88c2.4,0,3.5,1.7,3.5,4.12v6h-1.84V16.77c0-2-.78-2.72-2.18-2.72s-2.5,1.52-2.5,3v5.42h-1.84V16.77c0-2-.78-2.72-2.18-2.72s-2.5,1.52-2.5,3v5.42h-1.84V12.69Z"/>
  </g>
  <path class="cls-2" d="M19.32,22.5l-2.88,5H8.91a1.88,1.88,0,0,1-1.63-.94L1.19,15.93a1.88,1.88,0,0,1,0-1.87L3.5,10l2.86,5,4.32,7.5h8.63Z"/>
  <path class="cls-3" d="M28.81,15.93L22.72,26.56a1.88,1.88,0,0,1-1.63.94H16.44l2.88-5L23.63,15,19.32,7.5H25l3.77,6.57A1.88,1.88,0,0,1,28.81,15.93Z"/>
  <path class="cls-4" d="M25,7.5H10.68L6.37,15,3.5,10,7.28,3.44A1.88,1.88,0,0,1,8.91,2.5H21.09a1.88,1.88,0,0,1,1.63.94Z"/>
  <path class="cls-5" d="M19.32,7.5L23.63,15l-4.32,7.5H10.68L6.37,15l4.32-7.5h8.63"/>
  <circle class="cls-6" cx="15" cy="15" r="3.75"/>
  <path class="cls-7" d="M7.28,3.6a1.88,1.88,0,0,1,1.63-.94H21.09a1.88,1.88,0,0,1,1.63.94L25,7.5H25L22.72,3.44a1.88,1.88,0,0,0-1.63-.94H8.91a1.88,1.88,0,0,0-1.63.94L3.5,10l0,0.08Z"/>
  <polyline class="cls-8" points="6.37 15 10.68 7.5 25.05 7.5 24.96 7.34 10.68 7.34 6.37 14.84"/>
  <path class="cls-7" d="M1.19,14.22l2.32-4,2.86,5,4.32,7.5h8.54l0.09-.16H10.68L6.37,15,3.5,10l-2.32,4a1.87,1.87,0,0,0-.24,1A1.88,1.88,0,0,1,1.19,14.22Z"/>
  <g class="cls-9">
    <path class="cls-10" d="M16.53,27.34H8.91a1.88,1.88,0,0,1-1.63-.94L1.19,15.78a1.88,1.88,0,0,1-.24-0.85,1.87,1.87,0,0,0,.24,1L7.28,26.56a1.88,1.88,0,0,0,1.63.94h7.53Z"/>
  </g>
  <g class="cls-9">
    <polygon class="cls-11" points="23.72 15 19.41 7.5 19.32 7.5 23.63 15 23.72 15"/>
    <path class="cls-11" d="M28.81,15.78L22.72,26.4a1.88,1.88,0,0,1-1.63.94H16.53l-0.09.16h4.65a1.88,1.88,0,0,0,1.63-.94l6.09-10.62a1.87,1.87,0,0,0,.24-1A1.88,1.88,0,0,1,28.81,15.78Z"/>
  </g>
  <g class="cls-9">
    <path class="cls-6" d="M25,7.66l3.77,6.57a1.88,1.88,0,0,1,.24.85,1.87,1.87,0,0,0-.24-1L25,7.5H19.32l0.09,0.16"/>
    <polygon class="cls-6" points="19.32 22.66 23.72 15 23.63 15 19.32 22.5 16.44 27.5 16.53 27.5 19.32 22.66"/>
  </g>
  <path class="cls-12" d="M28.81,14.07L25,7.5,22.72,3.44a1.88,1.88,0,0,0-1.63-.94H8.91a1.88,1.88,0,0,0-1.63.94L1.19,14.07a1.88,1.88,0,0,0,0,1.87L7.28,26.56a1.88,1.88,0,0,0,1.63.94H21.09a1.88,1.88,0,0,0,1.63-.94l6.09-10.62A1.88,1.88,0,0,0,28.81,14.07Z"/>
</svg>
