<svg xmlns="http://www.w3.org/2000/svg" width="128" height="128" viewBox="0 0 128 128"><title>API Analytics</title><path d="M126.4738,58.12,100.1694,12.3782A11.5551,11.5551,0,0,0,90.3056,6.5H37.6969a11.5486,11.5486,0,0,0-9.865,5.8757L1.5275,58.0261a11.4753,11.4753,0,0,0-.0023,11.4366L27.83,115.4133A11.7726,11.7726,0,0,0,37.6938,121.5H90.3021a11.7264,11.7264,0,0,0,9.8661-6.06l26.3031-45.7447A11.728,11.728,0,0,0,126.4738,58.12Z" fill="#4285f4"/><path d="M92.7992,53.9966,77.0464,52.2806l-5.06-5.0773L56.0126,48.631l7.2819,7.2818.0432,2.7484,6.7291,6.729.25,3.6117L55.2252,53.91,36.69,53.3322l-4.1874,12.54,2.74,8.1423L82.7285,121.5h7.5736a11.7264,11.7264,0,0,0,9.8661-6.06l19.7413-34.3327Z" opacity="0.07"/><path d="M35.9129,74.6423a14.1733,14.1733,0,1,1,18.6914,0A14.1876,14.1876,0,0,1,35.9129,74.6423Zm17.1261-17.13a10.122,10.122,0,1,0,0,12.9489A10.1322,10.1322,0,0,0,53.039,57.5122Z" fill="#fff"/><path d="M73.4018,74.6447a14.1733,14.1733,0,1,1,18.6906-.0039A14.1879,14.1879,0,0,1,73.4018,74.6447Zm17.124-17.1316a10.122,10.122,0,1,0-.0008,12.949A10.1322,10.1322,0,0,0,90.5257,57.5131Z" fill="#fff"/><circle cx="45.2585" cy="63.9869" r="5.5709" fill="#fff"/><circle cx="82.7444" cy="63.9869" r="5.5709" fill="#fff"/><path d="M71.8534,48.7467a1.0135,1.0135,0,0,0-.5886-1.8389H56.738a1.0135,1.0135,0,0,0-.5887,1.8388,18.8171,18.8171,0,0,1,6.9844,9.5993.93.93,0,0,0,1.7412-.0169A18.8174,18.8174,0,0,1,71.8534,48.7467Z" fill="#fff"/></svg>