<svg xmlns="http://www.w3.org/2000/svg" width="128" height="128" viewBox="0 0 128 128"><title>Developer Portal</title><path d="M126.4738,58.12,100.1694,12.3782A11.5551,11.5551,0,0,0,90.3056,6.5H37.6969a11.5486,11.5486,0,0,0-9.865,5.8757L1.5275,58.026a11.4753,11.4753,0,0,0-.0023,11.4366L27.83,115.4133A11.7726,11.7726,0,0,0,37.6938,121.5H90.3021a11.7264,11.7264,0,0,0,9.8661-6.06l26.3031-45.7447A11.728,11.728,0,0,0,126.4738,58.12Z" fill="#4285f4"/><path d="M105.19,63.4617,92.4487,50.7786l-7.8954-7.8954L63.8748,35.181l-14.5284,6.93-5.9995.772L56.94,56.4767l-4.2542,7.01L22.71,63.4617,80.7482,121.5h9.5539a11.7263,11.7263,0,0,0,9.8661-6.06l20.81-36.1906Z" opacity="0.07"/><path d="M63.95,40.381a23.0336,23.0336,0,0,1,16.3381,6.7673l4.2651-4.2651a29.137,29.137,0,0,0-41.2063,0l4.2651,4.2651A23.033,23.033,0,0,1,63.95,40.381Z" fill="#fff"/><path d="M63.95,86.5916a23.0328,23.0328,0,0,1-16.3379-6.7673l-4.2651,4.2651a29.1371,29.1371,0,0,0,41.2063,0l-4.2651-4.2651A23.0333,23.0333,0,0,1,63.95,86.5916Z" fill="#fff"/><path d="M63.95,76.1554a12.672,12.672,0,0,1-12.3047-9.653H35.5527v9.802L22.71,63.4617,35.5527,50.6682V60.47H51.6454A12.672,12.672,0,0,1,63.95,50.8172h0A12.672,12.672,0,0,1,76.255,60.47H92.3477V50.6682L105.19,63.4617,92.3477,76.3044v-9.802H76.2549A12.672,12.672,0,0,1,63.95,76.1554Zm0-19.3061a6.637,6.637,0,1,0,6.6369,6.637A6.6444,6.6444,0,0,0,63.95,56.8493Z" fill="#fff"/></svg>