<svg xmlns="http://www.w3.org/2000/svg" width="50.17" height="51.52" viewBox="0 0 50.17 51.52">
  <title>Asset 1</title>
  <g id="Layer_2" data-name="Layer 2">
    <g id="Layer_1-2" data-name="Layer 1">
      <path d="M49.91,20a41,41,0,0,0-.26-11.12C34.27-2.92,15.08-3,.4,8.88A44.86,44.86,0,0,0,.29,20c5.52-6.08,14.57-10,24.79-10s19.3,4,24.82,10.08" style="fill: #ffc60b;fill-rule: evenodd"/>
      <path d="M46.13,32.59A37,37,0,0,0,49,24.93c-5.15-6.45-13.94-10.7-23.92-10.7S6.33,18.47,1.18,24.91C3.82,37.54,13.11,46.94,25,51.52A46.44,46.44,0,0,0,30.16,49C18.27,44.26,9.9,34.27,8.84,27.88c4.51-4.17,8.46-6.22,16.26-6.22s16.57,4.35,21,10.93" style="fill: #0069a6;fill-rule: evenodd"/>
    </g>
  </g>
</svg>
