<svg xmlns="http://www.w3.org/2000/svg" width="128" height="128" viewBox="0 0 128 128"><title>Cloud Security Command Center</title><path d="M126.4738,58.12,100.1694,12.3782A11.5551,11.5551,0,0,0,90.3056,6.5H37.6969a11.5486,11.5486,0,0,0-9.865,5.8757L1.5275,58.0261a11.4753,11.4753,0,0,0-.0023,11.4366L27.83,115.4133A11.7726,11.7726,0,0,0,37.6938,121.5H90.3021a11.7264,11.7264,0,0,0,9.8661-6.06l26.3031-45.7447A11.728,11.728,0,0,0,126.4738,58.12Z" fill="#4285f4"/><path d="M93.1218,41.0915l-13.2211,9.642L59.1682,30.0009,34.2144,59.5,46.42,71.7062l-.103,18.2327L77.8785,121.5H90.3021a11.7263,11.7263,0,0,0,9.8661-6.06l24.57-42.7313Z" opacity="0.07"/><path d="M68.168,46.6334A17.9577,17.9577,0,0,1,81.0346,59.5H93.1218V41.0915L68.168,30.0009Z" fill="#fff"/><path d="M46.3015,59.5A17.9577,17.9577,0,0,1,59.1682,46.6334V30.0009L34.2143,41.0915V59.5Z" fill="#fff"/><path d="M59.1682,81.3665A17.9577,17.9577,0,0,1,46.3015,68.5H34.9863c2.6471,13.4332,11.93,25.19,24.1819,30.0583Z" fill="#fff"/><path d="M81.0346,68.5A17.9577,17.9577,0,0,1,68.168,81.3665V98.5582C80.4195,93.69,89.7027,81.9331,92.35,68.5Z" fill="#fff"/><circle cx="63.6681" cy="64" r="8.9998" fill="#fff"/></svg>