<svg xmlns="http://www.w3.org/2000/svg" width="128" height="128" viewBox="0 0 128 128"><title>Cloud Security Scanner</title><path d="M126.4738,58.12,100.1694,12.3782A11.5551,11.5551,0,0,0,90.3056,6.5H37.6969a11.5486,11.5486,0,0,0-9.865,5.8757L1.5275,58.0261a11.4753,11.4753,0,0,0-.0023,11.4366L27.83,115.4133A11.7726,11.7726,0,0,0,37.6938,121.5H90.3021a11.7264,11.7264,0,0,0,9.8661-6.06l26.3031-45.7447A11.728,11.728,0,0,0,126.4738,58.12Z" fill="#4285f4"/><path d="M127.8206,65.9552,99.7962,37.9308l-9.2918.4408-4.75,4.5L76.1294,37.13H67.7619L89.6291,58.997,88.5349,73.1875,70.3306,54.9832,57.5483,58.2861,43.6362,44.3739l-5.3817,1.9144L28.75,65.6772l6.0165,6.0165,5.2721,13.5911L76.254,121.5h14.048a11.7263,11.7263,0,0,0,9.8661-6.06l26.3031-45.7447A11.385,11.385,0,0,0,127.8206,65.9552Z" opacity="0.07"/><circle cx="62.362" cy="62.9615" r="11.276" fill="#fff"/><circle cx="34.1721" cy="60.2553" r="7.6677" fill="#fff"/><circle cx="74.089" cy="90.0239" r="7.6677" fill="#fff"/><path d="M93.2581,35.2227a9.2463,9.2463,0,1,0,9.2463,9.2463A9.2463,9.2463,0,0,0,93.2581,35.2227Zm0,14.4332a5.1869,5.1869,0,1,1,5.1869-5.1869A5.187,5.187,0,0,1,93.2581,49.6559Z" fill="#fff"/><path d="M88.0755,44.64A31.5888,31.5888,0,0,0,68.8234,32.0517L67.7619,37.13a26.393,26.393,0,1,1-24.1257,7.2442L39.955,40.72a31.5658,31.5658,0,1,0,50.713,8.2422A5.1833,5.1833,0,0,1,88.0755,44.64Z" fill="#fff"/></svg>